<?xml version='1.0' encoding='utf-8'?>
<svg xmlns="http://www.w3.org/2000/svg" width="163.67mm" height="109.11mm" clip-rule="evenodd" fill-rule="evenodd" image-rendering="optimizeQuality" shape-rendering="geometricPrecision" text-rendering="geometricPrecision" version="1.1" viewBox="0 0 16302 10868"> <defs> <style type="text/css">  .fil10 {fill:#0A0E17} .fil6 {fill:#1D293D} .fil2 {fill:#2D524C} .fil5 {fill:#47764D} .fil1 {fill:#5586A6} .fil7 {fill:#6A9661} .fil3 {fill:#71A8A9} .fil0 {fill:#95C8BF} .fil13 {fill:#9A4C3A} .fil12 {fill:#B9DBC9} .fil11 {fill:#C3694E} .fil9 {fill:#C5B8A7} .fil8 {fill:#F18F69} .fil4 {fill:#FDF3CD}  </style> </defs> <path class="fil0" d="m4895.9 541.59c333.58-1.5 650.94-20.43 986.82-20.09 312.09 0.29 1763.1-5.9 1824.1 30.39-31.04 20.07-459.88 23.4-532.45 25.95-253.11 8.88-494.68 4.12-745.87 0.66-360.05-4.97-753.9 10.25-1104.7-5.26l-338.85-8.76c-73.94-1.74-88.21-1.04-89.12-22.89zm3443-220.73c134.7-0.03 288.22-4.3 430.58-4.43l927.9 6.63c126.19-0.04 65.99 3.78 109.15 8.82 40.87 4.77 179.92-8.21 199.21 13.82-12.97 16.45-5.54 10.41-35.1 12.19l-133.92 7.23c-57.39 1.75-122.45 2.7-181.06 6.88-115.36 8.24-1560.6 12.76-1684.2 2.06-103.38-8.94-272.38-5.89-353.72-14.11-1.55-0.16-17.93-3.02-20.7-4.17-19.01-7.91-7.87-0.86-20.58-14.03 262.01-8.59 497.59-20.84 762.47-20.89zm-8338.9 2612.5c43.27-2.02 59.01-14.05 90.45-29.05l194.19-48.85c42.47-7.98 51.29-18.41 72.92-47.62 77.02-104.02 142.31-180.56 224.48-260.87 369.86-361.44 925.51-529.14 1447.5-379.69 130.45 37.36 240.68 87.43 339.13 146.07 25.7 15.3 48.17 31.87 74.85 46.42 32.55 17.73 47.69 24.9 75.56 45.91 47.38 35.72 58.43 50.54 105.48 82.34l6.89 4.77c0.93 0.69 2.36 1.71 3.27 2.44l22.91 23.33c-26.32-393.31 131.71-687.29 446.82-869.37 24.61-14.22 107.94-53.15 122.28-67.16-117.97-14.13-272.13-4.99-394.45-9.55-180.49-6.75-1114-31.74-1161.8-50.27 23.16-8.52 451.47-19.98 512.74-21.19 539.34-10.67 1042.1-27.75 1589-24.52 92.58 0.54 1982.6 21.53 2107.1 43.1-7.12 4.95-2.78 3.32-15.26 6.83l-48.02 3.54c-306.41 11.21-580.85 28.58-897.57 34.06l-981.47 18.83c11.13 13.42 8.2 9.45 29.03 18.55 440.59 192.33 667.34 699.64 454.81 1176.3-44.45 99.69-136.63 218.17-221.12 287.66-85.54 70.33-314.22 203.97-404.1 184.18l28.63 35.6c0.63 1.26 1.34 2.86 1.94 4.15 42.7 90.85 30.34 61.5 223.07 101.63l92.6 28.37c225.07 64.32 102.04 70.64 267.35-125.78 37.28-44.3 56.57-68.43 94.84-105.51 215.22-208.55 476.18-319.15 784.53-307.46 156.13 5.93 81.61 33.49 226.84-64.21 42.21-28.41 81.45-53.31 124.76-75.28 84.8-43.03 184.98-86.78 288.74-111.41 240.58-57.09 480.46-45.02 700.15 26.34 210.65 68.43 363.68 176.07 517.46 282.58 187.62 129.94 111.5 131.38 270.56 128.86 63.95-1.01 137.7-3.24 193.47 7.8 134.6 26.62 55.68 16.6 155.43 42.47 46.44 12.06 108.09 37.67 144.96 56.77 65.06 33.71 189.47 109.01 237.37 164.13l45.51 52.13c11.89 16.27 7.14 12.34 20.91 26.35 36.87 37.49 14.3 41.38 131.32-68.24 135.87-127.27 342.82-229.92 534.23-268.12 34.07-6.8 45.01-10.84 81.97-15.07 75.96-8.69 66.98-46.93 158.47-143.02 161.43-169.57 384-306.07 647.83-352.49 226.18-39.8 438.17-3.96 641.26 83.54 11.26 4.84 29.88 9.77 37.24 14.81l2.99 42.85c11.07-30.51 11.29-277.8 13.24-333.7 6.09-174.56 10.23-147.04-53.17-197.48-18.43-14.67-25.05-26.73-42.28-42.65-49.62-45.84-112.5-117.33-142.62-203.27-15.47-44.11-29.07-94.1-18.9-145.74 12.01-60.99 40.07-71.6 68.54-102.46-6.8-153.86-27.41-310.51-34.69-465.27-2.32-49.42-11.3-71.42 18.91-101.03l129.1-113.57c82.46-70.67 271.73-199.69 373.46-245.17 134.78-60.26 278.49 12.58 427.85 7.54 212.53-4.95 371.78 75.88 299.97 277.7-15.65 43.99-55.98 103.42-63.85 136.44 36.71 62.82 68.87 116.28 81.16 204.75 6.5 46.86 12.1 226.65 4.23 269.62 15.48-17.14 2.42-16.28 21.03 0.2 22.36 19.79 26.32 78.88 24.13 107.88-14.07 186.8-106.22 237.38-135.16 364.58-20.84 91.56-42.04 182.59-59.64 274.97-18.99 99.66-35.45 170.59-85.75 238.6l-1.33 84.57 5.78 7.41c10.23 8.98 129.44 38.78 173.93 55.98 60.15 23.25 115.85 45.48 171.08 71.88 28.77 13.76 54.04 24.28 81.87 39.63 26.95 14.87 47.17 29.83 76.56 44.47 173.51 86.41 299.7 156.34 449.15 285.15 134.84 116.21 136.46 139.63 234.45 258.07-39-222.66-53.38-364.39-107.46-591.81-13.13-55.14-40.46-139.76-47.18-188.45 61.33 29.92 196.62 301.84 222.97 359.35 60.74 132.56 106.35 291.41 140.22 444.41 15.22 9.4 5.12 2.99 17.25-3.07 0.31-0.16 1.5-1.4 2.42-1.31 9.95 18.3 5.63 47.25 6.61 62.58 1.27 19.62 42.08 21.23 55.3 6.06 13.82-15.83 7.59-209.28 21.34-247.83 4.75-13.34-0.23-5.07 6.63-13.92l5.84-387.18c0.62-143.79-25.68-186.4-72.32-334.9l-194-612.31c-16.22-51.2-31.33-98.39-48.42-151.79-16.17-50.49-37.92-105.66-49.82-156.41 98.2 100.35 354.22 496.67 421.29 621.73l122.2 226.37c0.42-26.31-1.9-53.2 9.88-71.61-4.4-26.05 58.66-606.96 69.4-641.69 6.96 74.93 23.74 384.7 11.89 444.18 22.99 40.11-4.17 433.13 17.03 504.3 7.67 25.74 35.76 104.3 51.8 122.33 3.74-8.67 78.89-307.32 106.57-389.38 120.75-357.98 291.78-699.56 515.97-982.11 37.08-46.73 73.7-96.86 111.75-136.95 277.61-292.45 455.51-460.71 835.96-655.49 43.19-22.1 129.27-64.73 176.13-78.73-56.33 51.22-154.35 105.49-239.98 190.38-77.18 76.54-140.34 135.82-215.24 215.29-18.44 19.57-25.95 31.41-48.32 54.87l-148.08 179.48c-258.62 337.81-464.37 706.29-608.36 1119.7-18.63 53.47-103.81 289.79-102.83 330.19 3.19 17.38-0.18 15.35 24.08 19.89 33.46 6.27 61.66-17.2 95.51-30.01l93.72-33.37c23.83-5.99 19.68 1.64 44.88-8.67l11.28-140.59c0.33-0.88 1.1-2.69 1.95-3.85l14.42 114.12c24.5 9.54 55.75-18.49 106.72-42.87 113.7-54.4 225.33-107.79 351.06-140.52 159.45-41.48 253.97-51.11 424.19-9.06l119.4 46.5c24.16-40.73 61.56-89.51 92.08-128.78 69.13-88.96 257.77-300.59 359.66-324.96-7.87 27.21-48.87 86.13-65.41 115.34-22.67 40.04-47.45 78.81-68.21 119.86-27.24 53.9-114.24 197.67-126.57 247.5l-2.5 27.52c79.91 53.31 95.23 37.72 173.66 75.06 49.01 23.32 107.4 40.74 179.19 75.75 31.14 15.19 53.64 29.4 82.61 44.52l118.67 69.07c7.62 4.1 12.53 6.22 19.95 10.65 13.96 8.37 11.91 8.57 21.51 14.96 27.53 18.34 50.34 30.42 77.92 49.51 96.02 66.47 74.73 69.23 148.82 6.27 91-77.35 201.9-145.73 307.9-202 33.89-17.98 141.56-68.6 181.73-73.27v-2625.3h-16302v2933.4z"/> <path class="fil1" d="m2891.1 9200.9 1503.2-2.02c338.96-4.57 687.78 12.55 1027.4 13.35 171.81 0.39 344.09 7.1 515.65 12.42 165.69 5.14 343.28 5.05 503.11 18.12-0.74 37.26 2.57 41.91-33.23 48.25l-184.77 5.51c-83.66 1.35-170.78 5.85-254.92 9.11-481.9 18.73-1056.7 27.09-1535.1 29.13l-1745-4.14c-65.47 7.78-881.27-15.87-965.14-18.24-185.78-5.23-806.23-13.17-947.08-39.35l122.07-17.63c43.98-1.34 83.9-4.95 127.77-7.45 245.24-13.93 542.35-17.5 794.49-26.82l800.37-16.86c84.55-0.5 187.61-10.38 271.09-3.37zm-232.94-388.96c12.88 6.12 1172.9 6.28 1302.1 8.02 414.62 5.55 863.86 11.6 1270.8 43.85-92.61-0.13-209.89 12.47-312.68 15.07-321.75 8.13-628.47 22.06-958.12 26.54-214.32 2.92-428.06 8.08-642.84 9.34-189.46 1.12-484.32-8.12-650.79-2.32-81.44 12.11-1359.8-41.19-1396.2-54.89 10.2-10.31 14.97-13.31 40.77-16.16 13.52-1.48 27.45-1.8 41.1-2.32l952.3-23.81c116.28-1.98 238.72 1.05 353.56-3.33zm-2658.1-783.19v1638.9c906.82-4.67 1811.2 2.16 2717 4.53 448.46 1.17 898.48 1.21 1346.7 11.86 326.57 7.76 666.71 7.89 994.2 21.51 54.78 2.28 109.64 5.44 163.66 7.32l160.41 14.83c-17.32 11.01-54.51 10.92-75.17 11.45-28.4 0.76-56.78 0.98-85.15 1.45-54.92 0.95-109.44 2.89-163.56 4.09l-1000.8 11.07c-900.32-1.68-1804.4 7.88-2704.8 1.95-450.93-2.96-901.93 3.88-1352.4 1.91v1108.2h16302v-1112.3c-640.67 4.31-1282.3-0.52-1922.5-2.12-319.87-0.81-643.56 1.41-964.26 3.03l-727.75-3.46c-70.74 0.33-170.84 8.37-236.39-2.76 18.72 14.34 23.79 11.97 40.1 28.22l84.77 103.36c84.61 123.96 60.29 173.01 71.31 249.11 3.08 21.27 2.25 36.04 2.25 57.64 0 42.34 0.75 85.02 1.12 127.4 0.69 79.74 4.58 168.36-0.71 248.92l-139.16-0.57c327.67 23.6 667.26 5.44 993.25 45.55-10.92 10.9-2.34 5.73-19.2 13.03-5.63 2.44-11.73 2.89-18.34 3.71-14.36 1.81-30.45 3.18-45.12 4.69-32.89 3.4-58.39 2.55-90.83 4.72-62.64 4.19-121.78 5.14-181.74 6.66-362.38 9.15-760.04 24-1122.5 21.33-120.39-0.89-246.61 10.84-369.82 9.66-505.91-4.85-1015.8 4.21-1522.2 4.45l-764.15-6.2c-62.68 0.29-125.3-0.37-188-0.02-571.36 3.02-1139.7 12.49-1710.2 7.03-1012.9-9.7-2031.1-5-3044.4-3.49-505.57 0.77-1008.7-6.08-1510.1-7.78-245.81-0.85-510.61 0.7-752.02-11.87-246.76-12.87-477.6-6.98-725.05-34.32 7.9-6.82 3.21-3.91 15.45-9.29 17.59-7.74 71.88-10.78 91-12.41 271.46-23.22 539.93-22.06 812.68-30.49 622.21-19.24 1269.1-16.89 1892.2-19.99 1597.4-7.94 3201.9-4.68 4799.4-3.02l13.63-395.77c-554.5-11.18-1150.7 7.41-1714 0.87-285.12-3.31-571.54 8.29-855.12 1.61-284.98-6.71-570.08-0.16-855.12-1.9-569.91-3.51-1140.5 4.96-1710.4-2.22-280.22-3.54-561.2-5.53-843.04-10.67-40.26-0.74-765.95-7.54-808.83-41.5 302.46-20.92 616.74-30.67 924.24-34.4 313.09-3.82 627.49-18.36 940.3-19.21l1406.7-14.6c155.47-2.02 323.23 4.08 476.3-3.52 2.57-25.29 100.17-175.04 121.08-210.04 40.38-67.58 83.1-142.01 120.81-212.94 38.45-72.3 75.87-142.13 112.84-220.68 17.8-37.83 30.01-89.45 72.66-94.34 28.12-3.24 128.91-7.4 153.79-4.59-28.01 85.75-180.29 323.71-238.02 404.06-71.69 99.78-135.35 179.76-220.64 263.97-16.82 16.61-24.73 25.67-38.01 41.31-0.79 0.93-1.9 2.38-2.71 3.28-0.8 0.9-1.92 2.34-2.75 3.18-0.8 0.82-1.99 2.17-2.84 2.93l-26.99 14.51c-14.62 6.84-6.44 2.38-13.88 7.24 253.45 6.95 513.96-1.55 768 0.53 252.19 2.07 505.64-1.44 758.07-2.25 143.02-0.47 1408.1-9.35 1518.1 1.91l-10.72-6.63c34.27-38.12 27.63-51.45 76.45-87.53 61.75-45.65 196.61-94.4 273.27-126.63 47-19.75 40.41-15.29 46.91-33.12l-381.8-4.21c-390.16-2.03-690.08 44.24-950.87-208.24-128.28-124.21-206.01-340.55-127.07-579.76 48.03-145.59 136.57-246.77 245.48-336.23 11.79-9.68 99.95-69.61 101.31-75.13l-249.87-8.49c-81.53 0.72-631.1-9.03-656.2 5.92-27.9 42.26 26.79 504.93 38.21 580.12 14.09 92.88 30.35 178.89 49.5 265.14 13.08 58.93 54.04 202.42 55.26 250.5-93.87-2.88-215.65-148.72-263.19-229.03-14.92-25.22-39.28-90.48-55.88-106.87-21.21 27.74-138.78 395.93-314.27 649-34.29 49.43-40.36 46.25-116.31 46.55-51.95 0.22-105 0.31-156.92-0.81 2.11-19.66 126.61-257.22 146.97-300.38 29.92-63.45 115.04-256.88 130.13-318.82 11.82-48.49-18.72-347.83-23.91-422.37-4.21-60.41-16.36-397.02-27.01-424.4l-67.33 1.76c-22.91 70.46-36.61 150.69-58.54 221.5-58.15 187.92-72.7 227.35-151.34 405.96-43.96 99.85-33.93 63.6-205.66 62.18 3.15-43.78 45.5-127.49 62.42-170.75 34.8-89.02 160.78-468.43 143.6-522.92-70.01-11.11-216.25-3.06-295.79-4.61l-866.99-22.34c-191.82-7.03-389.74-13.55-580.46-17.59l-561.1-28.42c-60.5 14.66-248.16-13.2-326.64-11.18-97.83 0.3-215.1-13.69-315.03-19.21-101.24-5.6-201.84-9.54-302.78-17.35-199.69-15.45-400.62-28.95-601.23-47.07-174.15-15.71-1033.5-114.06-1123.5-170.19-37.36-0.34-137.51-34.89-174.29-48.34l-19.31-5.96c-13.69 9.01-33.96-3.18-52.85-12.58l-107.36-69.91c-0.48-0.39-1.86-1.35-2.3-1.78-12.51-12.34 3.2-32.98-27.26-21.09-28.52 11.14-13.87-40.93-17.97-61.93-5.03-25.75-25.54-11.32-28.63-11.51-34.51-2.06 2.84 1.88-25.78-6.59l-59.27 1.59c-75.83 26.01-79.05-24.61-145.59-58.08-11.68-5.89 3.53-1.83-11.85-4.54-19.96-3.53-15.39 4.54-58.61 1.81-56.91-3.6-8.49 13.24-73.24 13.6-46.67 0.27-93.47-0.43-140.24-0.09-67.81 0.51-31.38-20.23-79.51-14.21-40.89 5.11-22.35 10.08-53.85 13.8l-224.96-5.94c-28.37 42.37-52.44 50.59-92.77 64.52-1.43 0.5-2.96 1.19-4.4 1.68-47.53 16.36-18.51-3.96-81.74 15.26-22.27 6.77-39.52 1.61-63.25 3.3-9.89 0.71-7.51 0.41-16.53 2.52-1.62 0.38-3.19 1.09-4.68 1.49-1.35 0.38-2.94 1.24-4.19 1.58-31.6 8.72-7.92-9.24-46.24-5.13-39.06 4.2 1.4 23.95-67.41 23.95z"/> <path class="fil2" d="m-0 6121.6 6284 0.14 63.49 150.62c20.68 51.9 42.08 103.33 60.31 158.13 37 111.22 73.79 218.84 107.27 335.17 33.6 116.71 62.08 226.13 90.14 345.66 21.19 90.31 65.51 292.8 64.3 380.01 22.85 47.25 17.45 192.95 34.55 252.58l13.1 152.44 231.07 33.36 26.46 48.3c-105.69 62.91-421.54 81.91-564.63 89.77-61.48 3.38-154.02-1.78-210.33 7.61l-78.1 31.97c6.72 21.81 0.02 6.81 21.61 9.53l212.57-3.9c125.62-5.85 319.03-20.06 440.93-41.87 143.73-25.73 105.79-29.53 189.69-59.25 28.78 14.83 30.58 52.83 92.91 38.83l18.96-211.8c2.07-56.1-6.63-176.78 9.34-221.21l13.41-256.15 0.95-33.48c1.31-223.4-2.14-287.8-46.27-515.18l-121.09-447.47c-0.91 12.95-1.5 26.54-2.65 39.42l-8.37 37.18-13.36 1009-1.76 375.69c4.91-58.83-23.39-224.97-35.93-294.01 6.78-99.37-127.84-626.49-161.97-750.31-31.41-113.98-72.57-234.21-113.45-341.91-18.87-49.73-131.17-299.04-132.01-318.05l382.82-2.92c4.56-5.64 11.63 1.13-4.58-34.41l-49.55-131.81c-20.71-58.71-44-109.01-67.28-169.51-43.21-112.3-95.93-224.39-150.15-329.3-92.28-178.55-145.38-278.24-260.44-425.24l-40.07-51.03c-16.01-19.57-71.26-91.56-75.8-110.5 18.75 3.98 62.57 36.94 84.88 52.83 23.55 16.77 51.6 39.57 73.95 59.58l140.09 132.73c50.77 50.41 193.52 249.01 232.99 306.74 72 105.3 141.68 214.46 204.53 335.27l136.95 268.77c12.68 27.53 24.43 75.96 48.76 92.22l2015.9 1.11c-53.07-70.62-85.31-114.16-85.13-235.09-15.29-178.35-9.89-377.95-16.24-559.41-3.31-94.67-8.52-187.79-9.15-282.7-0.43-64.57-12.74-228.71-3.07-280.21-22.23-33.54-3.73-143.05-13.08-187.16l-80.63-0.04c-8.08-68.77 20.82-143.69 11.05-208.24l-1.6-12.86c-2.4 38.31 6 35.45-26.54 41.02l-161.64 37.3c-127.36 38.72-258.39 96.51-371.69 162.11-197.33 114.28-122.22 127.15-241.07 51.3-28.37-18.1-53.64-30.94-85.68-47.91-410.27-217.3-858.38-240.93-1284.9-62.51-29.88 12.5-161.67 82.64-171.96 82.69-13.06 18.92 1.72 3.59-18.34 18.76-69.63 52.68-80.27 37.45-138.36 15.98-378.37-139.9-848.85-128.02-1195.4 87.12-101.68 63.11-28.61 51.28-226.64-24.08-55.78-21.24-115.72-36.3-175.75-48.45-304.89-61.72-644.16 10.48-887.4 195.67-26.21 19.95-107.34 93.73-123.95 99.11-24.19-33.89-44.74-67.83-69.08-98.91-26.39-33.71-49.02-60.57-77.4-92.61-134.51-151.89-311.83-267.73-505.22-344.46-26.28-10.43-105.53-26.29-122.41-41.85-33.89 0.25-111.03-19.93-155.73-26.28-273.09-38.77-378.23 20.45-490.41 18.69-43.96-103.87-166.17-233.54-240.48-299.51-212.55-188.67-487.15-285.86-789.38-278.89-83.37 1.92-165.19 8.96-244.99 23.98-55.34 10.43-174.21 50.84-215.93 51.14-38.25-12.01-292.52-389.55-940.02-396.14v2647.1z"/> <path class="fil3" d="m-0 2933.4v541.08c647.5 6.59 901.77 384.13 940.02 396.14 41.72-0.3 160.59-40.71 215.93-51.14 79.79-15.02 161.62-22.06 244.99-23.98 302.23-6.97 576.82 90.22 789.38 278.89 74.31 65.97 196.53 195.64 240.48 299.51 112.18 1.76 217.32-57.45 490.41-18.69 44.7 6.34 121.85 26.52 155.73 26.28 21.89-9 25.68-19.98 52.33-33.37 1.26-0.63 2.86-1.32 4.13-1.93 41.81-20.18 85.47-88.18 126.92-121.57l46.48-38.45c133.44-112.45 350.57-214.92 523.69-258.73 63.31-16.02 88.64-8.87 124.8-50.94 121.89-141.76 202.96-230.86 384.74-312.64 389.32-175.12 876.31-41.5 1132.7 278.55 88.25 110.15 61.56 61.39 228.12 122.98 45.15 16.7 81.64 31.91 123.19 52.99 40.92 20.75 71.68 36.88 109.65 60.18l76.97 50.69c67.47 50.11 156.63 128.76 208.5 191.99l135.15 211.34c12.25 22.06 19.06 30.3 45.06 37.32 52.1 14.05 169.85 53.74 217.46 45.31 10.29-0.05 142.07-70.19 171.96-82.69 426.49-178.42 874.61-154.78 1284.9 62.51 32.04 16.97 57.31 29.81 85.68 47.91 118.85 75.86 43.74 62.98 241.07-51.3 113.3-65.61 244.33-123.4 371.69-162.11l161.64-37.3c32.54-5.57 24.14-2.71 26.54-41.02l1.6 12.86c13.34-21.27 40.08-299.48 48.66-350.25 19.22-113.93 36.05-214.91 72.81-315.91 77.43-212.65 195.35-348.45 323.51-458.58 128.3-110.24 325.98-230.97 475.89-306.6 110.04-55.53 441.83-199.61 568.14-217.46l-0.95-3.98-2.99-42.85c-7.36-5.04-25.99-9.97-37.24-14.81-203.09-87.5-415.08-123.34-641.26-83.54-263.83 46.42-486.4 182.92-647.83 352.49-91.49 96.09-82.51 134.34-158.47 143.02-36.96 4.23-47.9 8.27-81.97 15.07-191.42 38.21-398.36 140.85-534.23 268.12-117.01 109.61-94.44 105.73-131.32 68.24-13.77-14-9.01-10.08-20.91-26.35l-45.51-52.13c-47.9-55.12-172.3-130.42-237.37-164.13-36.87-19.1-98.53-44.71-144.96-56.77-99.75-25.87-20.83-15.85-155.43-42.47-55.77-11.04-129.52-8.8-193.47-7.8-159.07 2.52-82.94 1.09-270.56-128.86-153.78-106.51-306.81-214.15-517.46-282.58-219.7-71.36-459.57-83.43-700.15-26.34-103.76 24.62-203.94 68.38-288.74 111.41-43.32 21.97-82.55 46.87-124.76 75.28-145.23 97.7-70.71 70.14-226.84 64.21-308.35-11.69-569.3 98.91-784.53 307.46-38.27 37.08-57.56 61.21-94.84 105.51-165.3 196.42-42.27 190.1-267.35 125.78l-92.6-28.37c-192.73-40.13-180.37-10.78-223.07-101.63-0.6-1.29-1.31-2.89-1.94-4.15l-28.63-35.6c-22.63-20.34-35.43-44.15-53.71-65.49-66.63-77.82-160.01-171.62-241-232.13-165.77-123.83-344.97-214.09-554-258.02-92.04-19.33-144.72-12.98-180.27-56.89-50.33-62.16-83.01-74.42-108.96-118.4l-22.91-23.33c-0.91-0.73-2.34-1.75-3.27-2.44l-6.89-4.77c-47.05-31.8-58.1-46.62-105.48-82.34-27.87-21.01-43.01-28.18-75.56-45.91-26.68-14.54-49.15-31.12-74.85-46.42-98.45-58.64-208.68-108.71-339.13-146.07-521.99-149.46-1077.6 18.25-1447.5 379.69-82.16 80.31-147.45 156.86-224.48 260.87-21.63 29.21-30.45 39.64-72.92 47.62l-194.19 48.85c-31.44 15-47.18 27.03-90.45 29.05z"/> <path class="fil3" d="m-0 8028.7c68.82 0 28.35-19.75 67.41-23.95 38.32-4.11 14.63 13.84 46.24 5.13 1.26-0.35 2.84-1.21 4.19-1.58 1.49-0.41 3.06-1.12 4.68-1.49 9.02-2.11 6.64-1.81 16.53-2.52 23.73-1.68 40.98 3.48 63.25-3.3 63.24-19.22 34.21 1.11 81.74-15.26 1.44-0.5 2.97-1.19 4.4-1.68 40.33-13.93 64.4-22.15 92.77-64.52l224.96 5.94c31.49-3.72 12.96-8.69 53.85-13.8 48.14-6.02 11.7 14.72 79.51 14.21 46.77-0.34 93.57 0.36 140.24 0.09 64.75-0.36 16.33-17.19 73.24-13.6 43.22 2.73 38.65-5.34 58.61-1.81 15.38 2.71 0.17-1.34 11.85 4.54 66.55 33.47 69.76 84.09 145.59 58.08l59.27-1.59c28.62 8.48-8.74 4.53 25.78 6.59 3.09 0.19 23.6-14.23 28.63 11.51 4.09 21.01-10.55 73.07 17.97 61.93 30.46-11.89 14.75 8.75 27.26 21.09 0.44 0.43 1.82 1.39 2.3 1.78l107.36 69.91c18.88 9.4 39.16 21.59 52.85 12.58-607.88-258.31 603.74-375.05 819.38-396.35 370.72-36.62 703.81-63.43 1074-89.56l273.1-17.99c52.05-1.84 52.93-1.07 87.41-19.31 18.7-11.18 51.91-4.32 76.41-5.08 118.54 0.98 119.79-11.82 224.13-16.31 78.29-3.35 150.93-9.68 230.81-14.16 155.58-8.72 305.94-16.32 460.99-25.09 154.52-8.76 306.78-15.75 460.69-21.72 80.25-3.12 156.71-6.59 236.54-7.8 39.66-0.61 75.85-2.5 115.04-3.05l108.16-11.86c0.97-0.63 2.55-2.12 3.81-3.22 12.69-64.7 10.78-146.67 45.88-199.78 31.51 10.39 184.89 132.58 194.4 137.19 15.91-12.57 13.11-21.42 27.89-36.09 6.47-6.41 9.12-7.04 16.84-13.42 79.55-65.76 75.61-128.42 171.2-24.72 41.41 44.91 42.44 66.16 73.04 63.03 45.1-22.59 150.85-118.14 196.94-127.42 19.67 115.34 32.82 164.85 30.39 292.16l5.34-113.62 242.14-4.6 4.54-6.94c1.21-87.21-43.12-289.7-64.3-380.01-28.06-119.53-56.55-228.96-90.14-345.66-33.49-116.33-70.27-223.95-107.27-335.17-18.23-54.8-39.63-106.23-60.31-158.13l-63.49-150.62-6284-0.14v1907.2z"/> <path class="fil2" d="m14801 2498.3c-41.25 67.14-82.86 121.33-123.79 195.13-9.64 17.4-20.7 32.95-29.59 49.27l-82.82 153.87c-79.01 133.97-133.36 281.88-203.27 427.56-67.09 139.82-120.39 307.67-174.68 456.6l-113.51 359.68c-6.96 25.08-26.43 119.94-41.28 119.58l-33.86-9.03c-20.8-8.19-23.45-6.05-37-18.12l-118.78-1190.2c-13.66-129.4-36.1-271.06-42.8-398.41l-14.42-114.12c-0.86 1.17-1.62 2.98-1.95 3.85l-11.28 140.59c-2.09 123.81-11.28 251.6-16.79 376.02-5.48 123.51-8.84 248.6-14.9 371.38-4.5 91.27-38.13 714.89-27.11 747.61-42.17 6.32-120.43-25.65-179.41-15l-24.79 2.8c-3.58 62.06 29.79 179.13 41.82 238.83l119.49 734.36c13.82 169.16 34.5 345.47 51.83 516.12l37.3 543.63c-18.27-11.51-8.23 3.5-20.84-20.07l-146.79-720.37c-28.94-120.11-73.15-247.58-96.09-340.46-5.9-23.86-20.36-57.83-30.36-84.59l-64.36-160.09c-7.71-16.94-12.66-18.16-19.56-34.09-6.91-15.96-7.84-27.4-14.55-40.79-9.34-18.67-87.26-133.59-116.44-196.8l-33.81-101.43c-29.8-117.65-52.48-246.88-78.32-369.98-51.54-245.62-107.11-485.7-169.62-718.14 0.88 45.15 0.75 93.95 2.33 138.27 1.29 36.44 11.94 102.57-11.25 125.94l-8.51-60.62c3.91-57.83-19.73-180.53-28.18-244.61-10.07-76.43-30.4-157.25-39.14-228.78-6.24-6.98-82.24-268.48-81.26-283.19-0.55 28.84 3.16 54.16-11.43 78.71l-5.84 387.18-15.76 704.61c-16.66-45.21-33.98-194.49-44.35-255.59-12.6-74.34-43.83-183.19-49.44-251.51-33.88-153-79.48-311.85-140.22-444.41-26.36-57.51-161.65-329.43-222.97-359.35 6.72 48.69 34.05 133.31 47.18 188.45 54.08 227.42 68.46 369.14 107.46 591.81 92.8 221.34 112.96 255.73 151.93 507.77 14.54 94.07 81.06 519.71 68.37 585.29l-44.08 2.76-6.66-0.26c-5.25 110.31 10.99 270.07 15.99 387.08 9.21 215.66 32.84 779.13 22.32 976.63-4.93 92.54-8.29 99.66-29.89 172.59l568.46 0.18c21.97 34.77 64.64 232.5 67.15 260.54l131.61-1.54c-12.55-33.99-23.55-88.06-33.19-128.78-8.91-37.74-29.59-94.22-34.52-124.96l121.28-5.42 13.25 260.11c29.05 5.76 68.73 4.78 99.42 8.33 99.38 11.46 135.81 37.87 188.64 42.56 2.27 0.21 9.01 0.28 11.07 0.54l42.16 20.01c34.55 23.63 32.28 11.84 54.19 30.62l92.63 65.39c9.58 5.57 2.52 0 15.47 8.62l20.12 17.02c51.75 46.67 25.83 44.42 56.09 75.55l64.79-526.64 174.95-2.36-101.13 592.23c-5.54 32.52-11.62 65.61-16.42 98.69-5.17 35.57-4.05 85.5-16.02 100.39 19.16 87.25 17.26 123.22 2.49 210.09-5.63 33.02-14.24 60.79-23.13 86.7-12.98 37.84-20.45 50.17-35.87 82.39l-27.47 273.22c15.25 13.99-5.53 6.03 25.17 11.14l91.11-3.33 13.13-32.2 118.29-709.56c20.48-99.58 100.71-675.17 121.98-708.95l1851-0.51v-1884.8c-417.51 18.38-670.83 195.06-703.49 195.83-13.57 0.33-308.02-94.99-456.35-87.34-39.16 1.04-106.07 94.82-131.83 124.14-42.82 48.74-79.59 84.35-120.45 134.09-20.73 25.23-32.67 43.06-57.19 70.1l-163.77 209.86 103.16-271.9c22.07-55.03 110.96-233.06 114.11-272.58l-74.68 4.91c-97.74-13.75-318.57 63.94-402.18 81.79 9.69-161.91 190.79-853.77 236.16-1001.4 50.39-163.9 100.33-304.4 156.82-461.32 21.47-59.65 164.6-411.38 190.24-436.53 12.33-49.82 99.32-193.6 126.57-247.5 20.76-41.06 45.54-79.82 68.21-119.86 16.54-29.21 57.54-88.13 65.41-115.34-101.88 24.36-290.52 236-359.66 324.96-30.53 39.26-67.92 88.05-92.08 128.78z"/> <path class="fil4" d="m10902 5173.1c-13.58-66.93 68.14-74.52 78.19-21.75 10.95 57.45-67.46 74.7-78.19 21.75zm6.34-673.17c-10.64-60.54 72.19-69.93 80.35-17.12 10.74 69.52-71.97 64.84-80.35 17.12zm11.54-673.17c-9.19-59.48 61.12-77.78 75.06-29.03 20.07 70.09-67.27 79.42-75.06 29.03zm-1957.6 537.28c9.77 64.55-19.12 139.48-11.05 208.24l80.63 0.04 672.85 20.11c29.23-5.99 18.12-76.61 19.4-138.1 1.03-49.47 0.71-98.98 0.98-148.47 0.86-153.4-2.73-841.66 18.29-901.04 9 71.15 10.91 151.02 17.63 223.34 6.93 74.71 15.73 145.92 25.63 218.63 10.07 73.91 45.1 375.66 71.47 417.52 79.02 0.84 659.82-11.1 685.58 14.13 29.77 29.14 7.36 494.05 7.02 567.18-0.61 130.27-6.75 107.29-185.92 106.85-99.28-0.24-199.85-2.59-298.95 0.58 10.92 106.59 203.27 378.63 298.41 481.45 51.07 55.18 136.67 128.36 211.34 176.75 53.59 34.72 194.06 118.07 267.62 123.84-2.24-348.09 5.41-698.29 8.8-1047.2 1.69-174.73 1.27-347.2 3.93-521.55 1.3-85.39 2.08-169.12 1.62-254.72-0.26-48.21-9.99-236.98 15.23-266.59-7.6 169.26-3.93 356.23-4.54 527.36l-8.84 1043.1c0.15 86.85-2.7 173.88-3.99 260.77-0.9 60.32-8.6 214.54 2.18 264.7 56.65 19.86 174.79 43.15 238.76 36.91 12.29-157.9 1.6-327.45 3.3-489.6 1.08-103.28-7.89-419.62 12.06-495.79 17.01 28.24-6.5 957.07 5.1 987.31 61.32 20.31 269.15-13.64 328.41-35.65 145.75-54.12 254.7-322.62 294.92-463.75 30.8-108.11 38.69-215.03 64.77-320.54l-525.88-2.07c-25.83-40.98-14.82-75.4-13.36-148.62l11.33-490.63c8.27-63.13 49.63-46.68 112.69-45.51l512.9-0.3c-2.8-89.66 79-777.56 99.63-821.5 61.35 95.04 94.03 999.59 90.17 1183.5l42.61-2.16c50.72 3.13 455.99-33.89 501.89-46.73l6.66 0.26c-0.24-96.59-25.76-255.27-40.46-352.07-31.51-207.43-57.11-436.78-158.57-625.06-28.56-52.99-61.45-99.64-99.79-143.13-52.51-59.55-121.86-113.74-195.38-150.17-128.39-63.64-329.47-117.53-475.24-98.81-137.76 17.7-260.09 152.75-356.76 234.05-67.02 56.37-75.95 89.84-103.5 102.85 14.72-37.08 41.14-62.23 59.29-98.36 41.6-82.77 100.21-232.71 99.24-327.45l-140.73-24.24c-23.54 131.97-260.64 506.84-327.13 511.86-45.78-12.84-152.13-126.98-179.98-160.86-49.75-60.51-96.47-121.17-138.5-201.07-93.33-177.4-129.55-307.29-134.77-538.46-126.31 17.86-458.1 161.94-568.14 217.46-149.9 75.63-347.59 196.36-475.89 306.6-128.16 110.12-246.08 245.92-323.51 458.58-36.76 101-53.59 201.99-72.81 315.91-8.58 50.77-35.32 328.98-48.66 350.25z"/> <path class="fil5" d="m6868 6119.4c22.52 28.43 41.62 103.07 55.44 147.18 27.67 88.44 20.82 79.8 20.22 175.34l8.37-37.18c1.15-12.88 1.74-26.47 2.65-39.42l121.09 447.47c44.12 227.38 47.58 291.78 46.27 515.18l8.66-46.23c3.51-10.23 2.98-7.45 7.82-13.12l6.82 154.57c11.35 79.32 10.85 207.33 6.77 289.76-16.32 2.35-32.01 1.23-44.82-4.87-7.9-36.53-0.5-55.22 0.4-90.49-15.98 44.43-7.27 165.11-9.34 221.21l-18.96 211.8c-62.33 14-64.13-23.99-92.91-38.83-83.9 29.72-45.96 33.53-189.69 59.25-121.89 21.81-315.31 36.03-440.93 41.87l-212.57 3.9c-21.59-2.72-14.89 12.28-21.61-9.53l-11.08-2.12c-23.23 21.44-80.84 12.15-113.49 6.78-8.91 6.54 2.29 1.49-12.73 5.29-83.3 21.1-944.23-11.34-1005.3-14.69-163.57-8.97-654.75-38.55-812.16-103-16.75-6.86-53.47-28.4-54.26-45.22-1.38-29.27-10.01-13.64 13.61-15.49-5.26-47.05 85.25-51.86 150.06-61.14 291.45-41.7 697.29-58.02 993.85-61.8l416.62 3c9.93 14.46 10.6 15.05 16.41 32.49l0.59-8.11-26.82-104.83c-0.53 2.07-0.3 4.5-0.52 6.37-5.59 49.73-7.74 38.12-29.05 40.29l-201.36-1.55c-266.17 0.37-500.45-12.89-768.52-27.91-268.98-15.07-468.22-34.52-729.86-66.37l-172.62-27.53c-28.99-4.96-34.67-1.95-30.66-28-34.48 18.25-35.36 17.47-87.41 19.31l-273.1 17.99c-370.17 26.14-703.25 52.94-1074 89.56-215.64 21.31-1427.3 138.04-819.38 396.35l19.31 5.96c39.65-16.88 320.05 16.66 388.55 21.94 377.19 29.02 848.63 36.87 1224.9 38.36 257.64 1.02 1211.2-16.05 1484.2-92.86 36.59-10.3 50.29-20.06 77.03-30.41-13.78 84.92-215.5 94.61-305.01 105.73-642.13 79.74-1850.7 75.06-2516.8 16.24-108.19-9.55-63.94-19.37-178.6-10.66 90.01 56.14 949.32 154.49 1123.5 170.19 200.61 18.12 401.54 31.62 601.23 47.07 100.94 7.81 201.54 11.75 302.78 17.35 99.92 5.53 217.2 19.51 315.03 19.21-1.59-1.18-3.55-2.53-4.94-3.31-1.34-0.75-3.21-2.23-4.9-3.07-24.77-12.38-259.29-19.68-299.62-21.95-40.75-2.31-12.82-1.3-38.44-11.44-36.57-14.46-346.64-28.53-354.14-120.74 27.62 10.46 45.43 19.43 82.05 29.71 261.49 73.34 838.43 85.71 1117.6 97.45 425.85 17.91 1292.2-3.06 1712.1-48.2 66.31-7.13 128.14-15.15 192.7-25.95 44.76-7.49 149.79-38.13 181.53-38.13-4.25 31.14-7.33 32.54-38.14 42.5-326.25 105.44-1278.9 115.59-1623.7 115.23-104.67-0.1-196.24 6.56-297.17 5.88-71.23-0.49-246.02-17.63-298.33-6.81l561.1 28.42c190.72 4.04 388.64 10.56 580.46 17.59l866.99 22.34c79.54 1.55 225.78-6.49 295.79 4.61 17.18 54.49-108.8 433.9-143.6 522.92-16.92 43.26-59.27 126.97-62.42 170.75 171.73 1.41 161.71 37.67 205.66-62.18 78.64-178.62 93.19-218.04 151.34-405.96 21.92-70.81 35.63-151.04 58.54-221.5l67.33-1.76c10.65 27.38 22.8 363.99 27.01 424.4 5.2 74.54 35.74 373.88 23.91 422.37-15.09 61.94-100.21 255.37-130.13 318.82-20.36 43.17-144.85 280.72-146.97 300.38 51.91 1.12 104.96 1.03 156.92 0.81 75.95-0.31 82.01 2.88 116.31-46.55 175.49-253.06 293.06-621.26 314.27-649 16.59 16.39 40.96 81.66 55.88 106.87 47.54 80.31 169.33 226.15 263.19 229.03-1.22-48.08-42.18-191.58-55.26-250.5-19.15-86.25-35.41-172.25-49.5-265.14-11.41-75.19-66.11-537.86-38.21-580.12 25.1-14.95 574.67-5.2 656.2-5.92-14.97-7.77-10.28-5.2-31.6-7.26l-460.83-53.35c-69.98-11.33-318.7-50.21-368.01-111.51-33.02-41.03-8.44-43.77-4.1-45.68-2.24-222.23 2410-210.43 2475.6-210.46-14.16-11.97-33.11-20.19-46.09-33.9-4.52-4.79-13.1-15.89-14.98-23.04-6.81-25.97-6.39-13.8 8.99-17.33 12.88-11.58-3.47-4.88 22.24-7.57 34.47-3.61 158.61 9.8 195.27-4.57-82.48-10.5-227.13 1.05-316.36 0.88l-916.11-14.38c-186.62-2.91-1015.6-33.48-1110-129.86 12.74-38.49 69.67-46.95 111.25-56.03 47.63-10.38 91.38-17.76 140.09-24.43 96.06-13.17 194.58-20.92 290.52-29.51 74.85-6.69 592.15-27.45 608.59-39.95-47.74-16.09-85.04-29.04-129.82-48.34-37.29-16.08-96.94-48.85-128.61-57.82 8.48 21.56 16.67 5.05-8.76 20.04l-190.68 58.65c-204.56 58.34-440.45 59.37-655.71 54.8-13.31-0.29-125.44 2.14-133.99-8.12-10.62-30.22 1.04-223.92 3.52-271.43 5.19-318.95 56.71-730.62 128.98-1045.2 23.7-103.12 59.56-217.23 77.41-317.14-125.79 39.17-334.4 338.48-357.98 497.16-18.92-18.2-16.17-37.2-24.38-65.95l-60.01-195.01c-17.62-52.93-84.36-207.44-87.88-247.32l2024.1 1.4-10.54-7.87-2015.9-1.11c-24.32-16.27-36.08-64.69-48.76-92.22l-136.95-268.77c-62.85-120.81-132.52-229.97-204.53-335.27-39.47-57.73-182.22-256.33-232.99-306.74l-140.09-132.73c-22.34-20.01-50.4-42.81-73.95-59.58-22.31-15.89-66.14-48.85-84.88-52.83 4.54 18.94 59.79 90.93 75.8 110.5l40.07 51.03c115.06 147 168.16 246.69 260.44 425.24 54.22 104.91 106.94 217 150.15 329.3 23.28 60.5 46.57 110.8 67.28 169.51l49.55 131.81c16.22 35.54 9.14 28.78 4.58 34.41z"/> <path class="fil6" d="m13140 8518.4c-82.01-7.61-197.79 8.97-283.37 10.51-93.26 1.67-187.32 8.55-278.91 10-373.76 5.93-761.23 21.1-1134.1 24.54-105.06 0.98-515.74-5.12-579.7 2.22-35.46 5.64-128.61-2.35-172.35-2.52-219.55-0.87-469.49 12.83-679.44 6.05-46.73-1.51-110.19-10.88-157.26-11.13-35.05-0.19-305.43 7.23-336.76-6.65l-812.73-9.55c-42.45 10.69-121.08-8.74-174.78 0.54-54.48 9.4-117.98-6.68-153.05 23.08-1.35 5.52-89.51 65.45-101.31 75.13-108.92 89.46-197.45 190.64-245.48 336.23-78.94 239.22-1.21 455.56 127.07 579.76 260.78 252.49 560.71 206.21 950.87 208.24l381.8 4.21c51.82-3.91 96.32-24.35 135.87-38.97 38.34-14.16 25.22-10.99 54.99-29.98 22.33-14.25 47.71-15.69 77.76-15.76l125.88-11.97c14.71-10.55 42.56-13.26 69.5-22.32l460.91-156.97c101.07-32.74 397.42-119.73 475.74-202.71 10.73-11.36 4.53 2.76 6.65-11.8-182.14-5.34-363.73-11.12-545.85-13.47-94.56-1.21-171.03-8.14-266.85-9.76-85.44-1.44-201.56 9.27-265.8-17.21 48.86-1.6 96.8-5.95 140.61-10.3 50.65-5.03 102.67-1.19 153.33-5.47l908.18-26.62c12.4-12.67 123.07-43.29 146.49-52.81 156.95-63.79 216.53-16.41 412.22 23.04 14.87 3 27.36 5.57 40.71 7.24l33.28 4.45c15.8 4.53 6.3 0.59 11.56 5.45l2481.7-6.76c30.94-146.76-59.07-329.61-122.98-416.53-38.49-52.34-89.09-103.41-137.3-141.34-32.47-25.53-128.96-94.94-165.49-109.12-86.35-18.12-139.44-11.11-234.35-10.71-56.38 0.24-109.2-31.66-208.99 2.83-7.21 2.49-5.39 2.52-15.38 7.71-1.65 0.86-6.25 3.74-8.12 4.51-22.62 9.45-93.96 9.08-114.76 4.69z"/> <path class="fil7" d="m13554 7737c-39.4 1.99-71.71 20.91-109.48 25.23 13.45 10.79 49.11 11.74 67.13 12.9l212.75 10.08c104.77 5.37 760.44 25.77 794.52 104.85-107.79 101.2-1975.6 114.61-2262.6 124.28-56.32 1.9-2241.8 42.37-2352.1 27.97-36.66 14.37-160.8 0.97-195.27 4.57-25.71 2.69-9.36-4.01-22.24 7.57 213.1 92.86 450.64 59.69 549.39 88.87l-381.58-6.63c-38.76-1.05-78.9-8.25-115.74-7.97-65.57 0.03-2477.8-11.76-2475.6 210.46 116.01 99.57 486.65 131.17 669.47 149.51 83.8 8.42 766.54 48.9 772.78 53.16l812.73 9.55c88.5-4.42 186.07 0.52 275.89 0.17 229.87-0.88 589.53-13.19 812.4-24.81 164.72-8.6 872.45-52.16 958.95-147.04l11.19-16.13c8.13-17.25 4.97-5.31 6.72-27.02-60.3-62.74-210.63-56.04-254.57-90.64l-434.94-56.39c77.74-2.87 156.61 6.63 234.46 8.17 431.78 8.54 1000.9-0.21 1419.3-72.13 36.08-6.2 63.94-10.65 99.27-21.66 65.87-20.55 63.97-34.41 88.35-38.81-9.62 81.57-44.61 61.46-182 75.77-189.49 19.76-254.58 19.77-470.41 50.26-52.14 7.36-180.86 41.87-216.22 41.85-21.69 27.84-38.51 14.58-36.42 63.38 33.3 10.49 50.75 30.6 151.28 56.07 594.55 150.59 2027.1 122.33 2655.3 55.41 146.53-15.61 230.29-35.53 354.31-78.77l20.85-25.65c9.44-18.23 7.97-21.35-1.3-37.52-12.27-21.39-43.61-31.42-57.8-44.73 99.43 0.21 222.2 25.36 326.01 36.49 294.17 31.54 738.92 58.76 1022.6 53.4v-601.47l-260.81-21.76c-12.94 8.76-0.17 4.88-23.84 9.24l-61.08-2.08c-340.62-6.85-482.01-19.88-849 9.99-96.45 7.85-201.25 7.52-296.93 13.51-213.99 13.38-712.42 22.07-946.32 17.83l-309.46 0.69z"/> <path class="fil6" d="m11778 6995.2-30.77 46.87c-9.48 19.67-18.05 37.23-28.32 56.43-20.31 37.95-43.78 72.18-62.37 114.12-23.78 53.58-35.33 62.07-81.7 92.13-36.28 23.51-71.26 43.46-106.03 63.7-73.66 42.89-145.41 88.64-221.49 130.38-40.24 22.08-75.36 39.62-113.96 61.82-34.41 19.8-87.02 44.92-106.33 69.28 17.59 9.5 11.02-1.84 20.12 26.46l26.31 106.91c11.69 41.99 29.31 94.52 37.61 134.78l9.68 16.72c146.05 9.43 446.6-4.7 613.99-4.23 495.14 1.37 1110.1-3.56 1586.9-110.43 66.75-14.96 76.33-24.46 122.81-37.86 37.77-4.32 70.08-23.24 109.48-25.23 3.52-4.59 77.24-35.89 91.11-40.12 23.18-17.09 82.03-37.79 114.11-56.26 29.49-16.98 82.94-56.69 108.56-63.07 15.87-14.17 25.16-23.95 44.17-38.98 15.96-12.62 27.86-27.84 43.24-41.95 32.97-30.28 49.83-48.92 82.01-83.29 12.13-23.52 24.26-36.85 36.73-58.73 11.72-20.56 23.9-44.47 34.27-62.15 15.42-32.22 22.89-44.55 35.87-82.39 8.88-25.91 17.5-53.68 23.13-86.7 14.77-86.87 16.67-122.84-2.49-210.09 4.72-69.01-79.58-213.6-106.18-262.31-30.26-31.13-4.33-28.88-56.09-75.55l-20.12-17.02c-12.95-8.62-5.89-3.05-15.47-8.62l-92.63-65.39c-21.91-18.78-19.64-6.99-54.19-30.62l-42.16-20.01c-2.05-0.26-8.8-0.33-11.07-0.54-52.83-4.69-89.25-31.1-188.64-42.56-30.7-3.55-70.37-2.57-99.42-8.33l-66.81-0.95-131.61 1.54-837.36-0.62c-26.13 16.97-161.69 158.34-204.78 197.9-15.5 14.23-22.69 25.83-38.89 39.76-30.99 26.62-50.49 43.2-81.59 76.18l-339.68 298.98z"/> <path class="fil3" d="m14210 7541.3-2.68 33.04c84.38 17.85 683.29 25.05 865.32 44.34l207.19 18.33c23.74 2.5 47.37-0.96 70.29 0.89 38.4 1.43 59.69-7.32 93.7 4.28 34.31 11.71 206.04 19.25 251.21 22.53 108.24 7.86 240.06 22.65 345.47 23.14l260.81 21.76v-1587.3l-1851 0.51c-21.28 33.78-101.51 609.37-121.98 708.95l-118.29 709.56z"/> <path class="fil1" d="m3076.9 4381.5c16.88 15.57 96.14 31.42 122.41 41.85 193.39 76.72 370.71 192.57 505.22 344.46 28.38 32.04 51.02 58.91 77.4 92.61 24.33 31.08 44.88 65.02 69.08 98.91 16.6-5.38 97.74-79.16 123.95-99.11 243.24-185.19 582.51-257.4 887.4-195.67 60.03 12.15 119.97 27.21 175.75 48.45 198.03 75.36 124.96 87.19 226.64 24.08 346.55-215.14 817.03-227.03 1195.4-87.12 58.09 21.47 68.73 36.7 138.36-15.98 20.06-15.17 5.28 0.17 18.34-18.76-47.61 8.43-165.36-31.26-217.46-45.31-26-7.02-32.81-15.26-45.06-37.32l-135.15-211.34c-51.87-63.23-141.03-141.88-208.5-191.99l-76.97-50.69c-37.97-23.3-68.74-39.43-109.65-60.18-41.55-21.08-78.04-36.29-123.19-52.99-166.57-61.59-139.87-12.83-228.12-122.98-256.43-320.06-743.42-453.67-1132.7-278.55-181.78 81.77-262.85 170.88-384.74 312.64-36.17 42.06-61.5 34.92-124.8 50.94-173.12 43.81-390.25 146.28-523.69 258.73l-46.48 38.45c-41.45 33.39-85.1 101.39-126.92 121.57-1.27 0.61-2.88 1.3-4.13 1.93-26.65 13.39-30.44 24.36-52.33 33.37z"/> <path class="fil4" d="m2657.6 2518.6c25.95 43.98 58.63 56.24 108.96 118.4 35.55 43.92 88.23 37.56 180.27 56.89 209.03 43.94 388.23 134.2 554 258.02 80.99 60.51 174.37 154.31 241 232.13 18.28 21.34 31.08 45.15 53.71 65.49 89.88 19.79 318.56-113.85 404.1-184.18 84.49-69.48 176.67-187.96 221.12-287.66 212.53-476.62-14.22-983.93-454.81-1176.3-20.84-9.09-17.91-5.13-29.03-18.55l981.47-18.83c316.72-5.49 591.16-22.86 897.57-34.06l48.02-3.54c12.48-3.52 8.14-1.88 15.26-6.83-124.47-21.56-2014.5-42.56-2107.1-43.1-546.86-3.23-1049.6 13.85-1589 24.52-61.27 1.21-489.58 12.67-512.74 21.19 47.87 18.53 981.34 43.52 1161.8 50.27 122.32 4.56 276.48-4.58 394.45 9.55-14.34 14.01-97.67 52.94-122.28 67.16-315.12 182.09-473.14 476.07-446.82 869.37z"/> <path class="fil3" d="m14811 4344.6c23.58-18.77 69.58 5.61 93.05-28.62 31.45-45.89 82.78-149.42 144.6-237.73 165.45-236.37 542.69-667.55 886.71-635.12-8.76 29.5-27.89 36.42-51.81 56.75l-113.67 98.47c-48.59 39.85-172.48 175.12-212.8 211.49l-149.75 171.83c-25.65 31.97-268.8 336.54-265.67 364.31 148.33-7.65 442.79 87.67 456.35 87.34 32.66-0.77 285.98-177.45 703.49-195.83v-1612.3c-40.17 4.67-147.84 55.29-181.73 73.27-106.01 56.27-216.91 124.64-307.9 202-74.09 62.97-52.8 60.2-148.82-6.27-27.58-19.09-50.39-31.18-77.92-49.51-9.6-6.39-7.55-6.59-21.51-14.96-7.42-4.43-12.33-6.54-19.95-10.65l-118.67-69.07c-28.97-15.12-51.48-29.33-82.61-44.52-71.78-35.01-130.18-52.43-179.19-75.75-78.43-37.34-93.75-21.75-173.66-75.06l2.5-27.52c-25.65 25.15-168.77 376.88-190.24 436.53-56.49 156.93-106.43 297.43-156.82 461.32-45.37 147.58-226.47 839.45-236.16 1001.4 83.61-17.86 304.44-95.54 402.18-81.79z"/> <path class="fil8" d="m11426 6679.9c36.75 0.03 86.55-2.19 121.57 0.94 19.29 1.72 35.84 5.98 52.96 9.81l34 8.83c34.57 17.87-35.56 84.14-35.6 84.16-39.14 24.48-280.01-71.95-320.58-82.3 1.48-0.86 3.82-3.57 4.62-2.2 0.95 1.61 5.74-2.76 9.18-4.1 0.73-0.28 13.37-4.66 13.81-4.79 36.47-11.25 81.68-10.39 120.04-10.34zm587.99-1578 5.39-63.14c13.8 15.2 9.27 11.88 16.63 33.7l79.31 217.56c15.29 43.27 28.99 84.68 42.76 127.02l32.17 94.84c8.88 20.53 3.82 14.24 18.46 25.64 2.8 1.55 300.57 32.35 349.05 44.83-92.57 22.11-179.22 12.51-277.8 49.61-97.68 36.77-177.67 255.45-263.54 392.73-19.17 30.66-43.12 72.78-63.57 99.86-22.87 30.29-35.2 83.99-68.04 97.14-29.15 76.7-77.37 171.35-110.83 251.09-32.35 77.14-20.93 11.15-260.24 3.26-8.79 4.77-20.79 8.82-31.46 14.23-10.25 5.19-20.99 10.98-32.55 16.46-22.97 10.9-44.66 18.81-70.41 35.02-37.21 12.81-79.5 45.27-124.65 61.3-50.84 18.05-100.04-29.67-121.11-59.38 65.08-63.99 179.28-29.11 200.42-32.46 50.06-3.3 8.2-20.53 52.22-30.62 18.14-4.16 48.2 1.82 62.43-3.75 15.04-5.88 6.05-0.24 15.07-12.51-119.7-47.02-152.21-128.7-310.17-95.62-36.64 9.2-63.18 35.53-97.78 39.82l-128.72 73.34c-37.46 19.48-69.72-16.68-131.95-53.14-43.29-25.37-217.61-131.68-245.23-156.88l-282.25-189.12c-32.15-23.02-58.57-42.58-88.24-66.09-44.6-18.55-329.98-225.95-389.12-269.2-50.71-37.07-107.63-62.41-118.56-97.25-22.49 3-69.94-24.75-83.35-40.49-35.8-42 7.36-832.44-22.54-868.86-27.86-19.37-445.79-27.26-523.97-35.4l3.01 53.99c-9.67 51.5 2.64 215.63 3.07 280.21 0.64 94.9 5.85 188.02 9.15 282.7 6.34 181.47 0.95 381.06 16.24 559.41l150.34 62.56c49.53 20.68 101.64 44.2 152.54 65.76l911.91 398.38c99.64 43.19 200.12 87.38 300.98 129.32 195 81.07 243.72 147.59 372.56 282.35 42.43 44.38 84.45 54.61 161.45 45.2 56.81-6.94 356.8-54.77 388-37.86-73.36 21.69-435.42 71.52-486.58 96.79-20.58 10.16-16.24 3.28-18.26 29.19l26.84 16.85c46.9 14.76 177.57 10.8 233.51 7 78.79-5.36 142.37-19.92 218.85-29.09 214.33-25.68 219.86-60.11 323.11-173.66l472.66-521.91c145.99-162.55 351.1-406.19 356.23-630.54 2.09-91.27 1.4-185.37-15.62-262.07l-42.73-423.32c-5.01-43.83-19.19-190.81-31.27-218.09-61.55-6-195.45 13.82-264.28 20.01-87.08 7.81-175.4 17.22-261.11 21.55l-3.6-95.86-4.86 437.56z"/> <path class="fil1" d="m14758 8448.6c-83.47 0.65-175.94 15.81-261.58 20.17-77.16 3.92-195.48 19.88-270.59 14.22-14.98 28.42 14.6 144.04 20.5 175.15 11.3 59.66 19.42 112.39 29.16 171.01 10.56 63.65 60.32 304.11 60.76 345.66l-188.03 1.55-2481.7 6.76c-40.39-1.93-5.67-4.87-20.37 13.32 31.45 10.11 34.09 17.5 58.47 40.46 22.87 21.55 36.27 25.91 49.18 51.56l2365.4 7.44c-7.23 87.72-154.27 258.48-258.79 313.74-52.93 27.99-23.87 7.09-52.88 29.51-1.08 0.83-2.92 2.23-4.15 3.58 53.76-0.78 105.56-7.63 157.89-8.26 53.34-0.63 109.74 2.92 163.75 3.31 39.43 0.3 293.76 4.08 306.52-2.25l-141.66-0.92c-28.81-35.4-66.66-256.54-96.67-334.96l165.5-1.42-233.62-4.5 27.22-108.78c40.14-15.06 2051.8-9.13 2149.9-9.13v-848.25c-120.5 4.96-253.38 30.62-376.38 40.74-298.45 24.56-892.53 79.85-1167.8 80.28z"/> <path class="fil9" d="m11817 4912.9c-63.03 9.08-171.38 3.29-239.52 3.58-75.04 0.3-163.51 3.72-237.18-0.77-29.62-1.79-33.7 0.89-38.82-27.03-7.85-42.82 4.76-377.99 8.5-407.53l555.3 0.49c-0.46 70.54-13.35 154.07-21.92 224.16-7.2 58.88-25.83 156.37-26.37 207.11zm-1300.7-92.05c-2.11 35.05-4.17 65.44-34.02 76.95-34.16 13.19-377.18 8.25-443.61 7.22-10.5-48.65-120.01-301.99-131.43-429.97 190.2 15.85 423.85 2.45 612.18 3.19-0.9 75.98-1.51 151.91-2.08 227.88-0.26 37.02 1.17 78.26-1.04 114.72zm793.48-357.49c-3.07-33.02-2.19-69.8-0.77-103.1 3.35-78.38 14.41-63.54 43.34-64.16l533.21-1.56c-0.04 30.31-1.26 59.95-1.9 90.17-0.29 13.24 0.46 30.36-0.46 42.93-0.56 7.68-0.61 9.48-2.3 16.99-2.49 11.04-4.25 11.81-5.72 13.99-23.86 20.35-479.49 7.68-565.4 4.74zm-791.97 1.68-523.23-1.84c-99.58 0.39-98.09 4.43-109.76-48.11-8.78-39.48-20.6-86.1-22.58-127.81l640.45 6.36c1.25 0.3 4.09 3.12 5 1.61 11.13-18.74 11.56 55.72 11.55 83.38-0.01 28.9 1.2 56.8-1.43 86.41zm-813.35 127.39c23.84 34.07 1.42 202-0.82 259.09-3.53 88.9-7.32 178.31-10.51 266.9-4.3 119.38-23.65 439.82-21.6 531.82 10.93 34.84 67.85 60.18 118.56 97.25 59.14 43.25 344.52 250.65 389.12 269.2 130.11 10.68 998.65 3.17 1198.1 0.21 43-0.64 136.71-8.42 169.73-4.77l100.66-32.2 78.23-51.84c74.96-53.34 134.1-119.56 177.71-204.23 55.92-108.55 87.38-277.41 98.65-413.99l11.52-207.94 4.86-437.56c3.02-25.77 24.07-19.25 54.02-21.46 19.91-1.46 47.38-2.75 62.05-10.27l-42.61 2.16c3.85-183.92-28.83-1088.5-90.17-1183.5-20.64 43.95-102.43 731.84-99.63 821.5l-512.9 0.3c-63.06-1.18-104.42-17.62-112.69 45.51l-11.33 490.63c-1.46 73.22-12.47 107.64 13.36 148.62l525.88 2.07c-26.09 105.51-33.97 212.43-64.77 320.54-40.22 141.14-149.17 409.63-294.92 463.75-59.26 22.01-267.1 55.96-328.41 35.65-11.6-30.24 11.91-959.07-5.1-987.31-19.95 76.17-10.99 392.51-12.06 495.79-1.69 162.15 8.99 331.7-3.3 489.6-63.97 6.24-182.11-17.05-238.76-36.91-10.78-50.16-3.08-204.38-2.18-264.7 1.29-86.89 4.14-173.92 3.99-260.77l8.84-1043.1c0.61-171.13-3.06-358.11 4.54-527.36-25.22 29.61-15.49 218.38-15.23 266.59 0.46 85.6-0.32 169.33-1.62 254.72-2.66 174.36-2.24 346.82-3.93 521.55-3.39 348.87-11.04 699.07-8.8 1047.2-73.56-5.77-214.03-89.12-267.62-123.84-74.67-48.39-160.27-121.57-211.34-176.75-95.14-102.82-287.5-374.87-298.41-481.45 99.1-3.17 199.67-0.82 298.95-0.58 179.17 0.44 185.31 23.42 185.92-106.85 0.34-73.13 22.75-538.04-7.02-567.18-25.76-25.23-606.57-13.3-685.58-14.13-26.37-41.86-61.4-343.61-71.47-417.52-9.9-72.71-18.7-143.92-25.63-218.63-6.72-72.32-8.63-152.19-17.63-223.34-21.02 59.38-17.43 747.65-18.29 901.04-0.27 49.49 0.05 99-0.98 148.47-1.28 61.5 9.83 132.11-19.4 138.1z"/> <path class="fil5" d="m13061 2252.8c-9.91 32.58 14.8 332.58 2.89 459.26-8.23-9.2-47.34-95.53-59.35-117.84-39.13-72.65-23.46-65.29-24.83-143.92-11.78 18.41-9.46 45.3-9.88 71.61l-122.2-226.37c-67.07-125.05-323.09-521.38-421.29-621.73 11.9 50.75 33.66 105.92 49.82 156.41 17.09 53.4 32.2 100.59 48.42 151.79l194 612.31c46.64 148.5 72.94 191.11 72.32 334.9 14.59-24.54 10.89-49.87 11.43-78.71-0.99 14.71 75.02 276.21 81.26 283.19 2.52-27.38 31.09 77 32.7 82.62 34.79 120.7 46.39 92.96 45.56 246.61l-0.31 127.4c-7.46 19.51 5.71 1.94-10.63 16.75l8.51 60.62c23.19-23.37 12.54-89.49 11.25-125.94-1.58-44.32-1.45-93.12-2.33-138.27 62.5 232.45 118.07 472.52 169.62 718.14 25.84 123.1 48.52 252.33 78.32 369.98l33.81 101.43c29.17 63.21 107.09 178.13 116.44 196.8 6.71 13.39 7.64 24.83 14.55 40.79 6.9 15.94 11.85 17.15 19.56 34.09l64.36 160.09c10 26.76 24.46 60.74 30.36 84.59 22.94 92.87 67.14 220.34 96.09 340.46l146.79 720.37c12.61 23.57 2.57 8.56 20.84 20.07l-37.3-543.63c-17.33-170.65-38.02-346.96-51.83-516.12l-119.49-734.36c-12.03-59.7-45.4-176.77-41.82-238.83l24.79-2.8-20.63-7.57c-18.5-8.05-16.95-0.79-27.94-56.22-6.7-33.83-13.14-58.17-19.72-89.74l-87.19-349.24c-22.2-76.42-16.19-109.02-7.28-192.48 13.79-129.08 29.2-255.18 53.36-381.33 11.62-60.76 26.06-119.88 39.35-179.49l50.07-171.79c-0.98-40.4 84.2-276.72 102.83-330.19 143.99-413.44 349.74-781.93 608.36-1119.7l148.08-179.48c22.37-23.47 29.88-35.3 48.32-54.87 74.9-79.47 138.06-138.76 215.24-215.29 85.63-84.89 183.65-139.17 239.98-190.38-46.86 13.99-132.94 56.62-176.13 78.73-380.46 194.78-558.36 363.05-835.96 655.49-38.05 40.08-74.66 90.21-111.75 136.95-224.19 282.56-395.22 624.14-515.97 982.11-27.68 82.06-102.83 380.72-106.57 389.38-16.05-18.03-44.13-96.6-51.8-122.33-21.21-71.18 5.96-464.19-17.03-504.3z"/> <path class="fil8" d="m11081 2486.5c11.24-14-10.66-7.7 28.07-15.8 28.31-5.94 71.85-13.44 99.35-9.18-11.22 46.11-103.39 54-127.42 24.98zm-143.8-106.99c31.09 5.45 44.93 18.68 88.12 21.31 140.06 8.54 186.77-22.4 285.87-53.42-37.35 44.32-104.6 58.72-176.84 64.86-42.92 3.66-129.67 7.37-171.57-7.27-26.32-9.2-19.3 0.3-25.59-25.48zm240.96-148.69c33.06-6 11.04-8.27 45.25-15.31-8.69 80.23-58.58 24.41-64.42 149.67-1.81-1.63-3.38-3.72-4.5-5.77l-5.41-45.57c-16.78-5.55-45.29-14.62-64.78-24.41-52.46-26.37-42.6-18.75-50.05-44.01l143.92-14.6zm-97.99-364.71c4.03 4.79 3.3 3.1 7.83 11.5l112.56 342.35c-61.03 4.39-48.41-6.77-58.87-61.5l-51.27-191.32c-17.46-56.11-15.88-56.65-12.39-96.21 0.24-2.66 1.18-3.35 2.13-4.83zm-144.71 116.99c-32.26 17.91-39.36 30.79-91.74 37.08-22.91 2.75-43.15 2.22-65.74-2.48-24.83-5.17-27.66-12-42.68-17.34-22.34-22.85 2.63-14.01-50.08-64.77-10.73-10.33-17.26-20.39-25.53-28.21l-33.76-21.29c1.43-34.64-1.97-5.97 10.75-17.84 17.91-2.93 18.36-18.1 64.54-51.72 106.99-77.87 20.64-40.1 178.61-33.85 158.24 6.28 105.85-15.12 121.47 79.07-13.85 10.98-12.07 11.84-36.98 11.48 32.76 4.05 17.26-3.81 24.14 12.86l-49.55 92.57c-0.54-1.03-2.13 3.12-3.46 4.43zm192.23-548.31c-28.9 42.48-82.81 69.11-143.74 50.63-109.87-33.33-387.86-133.41-462.04-138.97l-3.77 18.34c-13.35 79.04 53.15 277.16 45.77 357.56-21.73 27.67-74.13 68.08-84.96 102.41-10.57 33.49 0.02 140.39 4.49 180.25-27.95-10.49-6.23 5.17-25.97-18.51-29.84-35.8-39.33-132.1-46.79-176.97-19.51-117.46-75.54-112.95-135.77-123.57-28.47 30.87-56.53 41.47-68.54 102.46-10.17 51.64 3.44 101.63 18.9 145.74 30.12 85.94 93 157.43 142.62 203.27 17.23 15.92 23.86 27.98 42.28 42.65 63.4 50.44 59.25 22.93 53.17 197.48-1.95 55.9-2.17 303.19-13.24 333.7l0.95 3.98c5.22 231.17 41.45 361.05 134.77 538.46 42.03 79.9 88.75 140.56 138.5 201.07 27.85 33.88 134.21 148.02 179.98 160.86 66.49-5.02 303.59-379.89 327.13-511.86-23.68-18.75-73.61-25.58-104.31-39.32-102.88-46.05-183.29-105.23-258.27-178.65-42.58-41.69-98.71-112.23-127.42-163.74-29.38-52.7-73.13-146.39-80.35-212.46 22.07 9.12 43.76 26.58 64.8 40 20.88 13.32 42.98 25.13 65.52 37.51 112.32 61.75 272.86 125.95 404.09 87.32 29.98-8.82 52.59-26.51 80.16-31.26 50.3-68.01 66.75-138.94 85.75-238.6 17.6-92.37 38.81-183.41 59.64-274.97 28.94-127.2 121.09-177.78 135.16-364.58 2.18-29-1.77-88.09-24.13-107.88-18.61-16.47-5.55-17.34-21.03-0.2-9.8 48.94-12.12 82.94-17.28 133.51-3.52 34.44 2.02 101.68-25.45 121.83-8.82-16.87-10.6-76.89-12.53-97.66l-75.71 3.89 11.26 12.98c-23.25 49.84-8.24 89.23-33.31 112.87-30.51 23.35-26.98 30.64-83.77 30.28-54.19-0.34-52.7-8.24-83.99-21.88-35.24-26.24-45.22-69.94-42.7-111.85l2.43-55.11c35.04-26.35 125.38-32.91 176.08-47.97 63.17-18.74 82.07 6.43 138.22 62.79-8.91-48.71-1.11-106.21-3.07-157.36-1.71-44.62-11.39-93.91-20.05-135.61-11.29-54.32-42.99-210.07-63.84-248.69-69.25 52.21-172.86 145.31-249.66 175.82z"/> <path class="fil6" d="m8001.6 7009c-2.17 15.3-2.54 3.14-0.19 19.26 0.21 1.41 2.25 5.75 2.47 4.94 0.22-0.8 2.21 2.97 3.28 4.48l4.14-22.3c-6.55 11.79-1.99 18.11 0.98 28.2 11.54 39.19 21.93 26.52 37.09 49.75 139.18 213.17 584.86 360.46 817.24 427.51 187.43 54.09 372.47 83.91 570.14 116.36 43.94 7.22 107.26 14.82 151.24 17.23 58.08 3.18 105.41 10.38 157.78 12.09 37.87 1.25 329.2 0.89 333.72 3.98 74.27-12.97 139.51-36.89 218.24-39.5 75.93-2.52 145.67 30.68 215.39 41.8 14.89-12.45 218.94-33.69 260.32-47.17 18.67-82.18 1.25-215.97-0.15-305.51-0.82-52.36-5.03-102.05-5.7-151.5-1-74.01-0.34-70.4-53.49-101.52-128.42-75.18-254.68-155.11-387.63-231.09-132.31-75.62-258.67-147.21-393.87-224.77-54.75-31.42-372.59-200.05-390.04-227.18l-103.35-5.48c-20.63 11.78-95.49 5.24-125.9 5.45 9.15 8.81 1.85 3.01 13.17 9.68 1.38 0.81 15.05 6.91 16.24 7.57-23.11 6.32-4.66-6.49-11.49 17.32 22.28 12.04 115.52 84.28 122.23 105.29-174.18 11.09-304.6-47.51-401.55-48.66 9.23 8.59-3 2.08 17.6 11.75 4.83 2.27 12.18 4.27 18.82 6.24l1101.6 383.65c36.07 13.27 55.44 16.23 63.92 36.8-64.13 25.89-471.17 144.68-546.64 166.92-413.54 121.85-810.12 215.01-1245.9 121.86-96.57-20.65-187.7-49.22-272.3-85.03-49.16-20.82-76.23-39.71-115.85-65.78-38.51-25.34-67.9-43.4-67.85-107.93l-3.73 65.27z"/> <path class="fil3" d="m12510 10564-392.78-6.91c-99.09 0.79-203.26-7.3-298.12-5.78l-612.16-5.6c-99.33-2.32-204.63 4.88-303.22 2.47-305.76-7.47-610.26-6.46-915.77-1.39-101.02 1.67-204.92-3.94-304.88-1.01l-632.9 0.17c-1597.4-1.66-3201.9-4.92-4799.4 3.02-623.03 3.1-1269.9 0.75-1892.2 19.99-272.74 8.43-541.22 7.27-812.68 30.49-19.11 1.63-73.41 4.67-91 12.41-12.24 5.38-7.55 2.47-15.45 9.29 247.45 27.34 478.29 21.45 725.05 34.32 241.41 12.57 506.21 11.03 752.02 11.87 501.4 1.7 1004.5 8.55 1510.1 7.78 1013.4-1.51 2031.5-6.22 3044.4 3.49 570.56 5.46 1138.9-4.01 1710.2-7.03 62.7-0.35 125.32 0.31 188 0.02l764.15 6.2c506.39-0.24 1016.3-9.3 1522.2-4.45 123.21 1.18 249.43-10.55 369.82-9.66 362.44 2.68 760.1-12.17 1122.5-21.33 59.96-1.52 119.1-2.47 181.74-6.66 32.44-2.17 57.94-1.32 90.83-4.72 14.67-1.51 30.76-2.88 45.12-4.69 6.6-0.82 12.71-1.26 18.34-3.71 16.86-7.3 8.29-2.13 19.2-13.03-325.99-40.11-665.58-21.95-993.25-45.55z"/> <path class="fil2" d="m8001.6 7009 3.73-65.27c-0.05 64.53 29.34 82.59 67.85 107.93 39.62 26.07 66.68 44.96 115.85 65.78 84.59 35.81 175.73 64.38 272.3 85.03 435.75 93.16 832.32-0.01 1245.9-121.86 75.48-22.23 482.51-141.03 546.64-166.92-8.48-20.58-27.85-23.54-63.92-36.8l-1101.6-383.65c-6.63-1.96-13.98-3.96-18.82-6.24-20.6-9.67-8.37-3.17-17.6-11.75 96.95 1.15 227.38 59.74 401.55 48.66-6.71-21.01-99.95-93.25-122.23-105.29 6.83-23.82-11.61-11 11.49-17.32-1.19-0.66-14.85-6.76-16.24-7.57-11.31-6.67-4.01-0.87-13.17-9.68 30.41-0.21 105.27 6.33 125.9-5.45-165.52-7.66-350.6 0.11-518.11 1.57-165.59 1.43-332.69-11.9-483.83 37.3-193.55 63.01-346.41 198.58-410.02 372.85-15.87 43.48-50.59 181.81-25.67 218.68z"/> <path class="fil2" d="m11151 9521.5c33.69-31.05 154.26-12.28 187.97 6.07-48.42 37.97-141.32 28.65-187.97-6.07zm117.69-139.49c28.59-19.41 258.8-74.54 301.75-52.83 22.03 11.13 52.15 36.21 53.11 64.96-51.69 40.06-309.39 20.12-354.86-12.13zm-1383.5 290.4c318.16-14.78 647-13.6 970.32-17.38 324.17-3.81 645.86-7.28 970.34-10.09l363.86-0.93c50.62-0.35 71.83 8.83 115.21 10.26 78.3 2.55 156.74-4.24 236.55-4.3 82.88-0.06 165.76-0.32 248.65-0.42 163.75-0.21 327.5-1.25 491.24-1.72 162.37-0.49 327.99 4.18 488.22-4.95l33.12-0.12c1.24-1.34 3.08-2.75 4.15-3.58 29.01-22.42-0.05-1.52 52.88-29.51 104.52-55.26 251.56-226.02 258.79-313.74l-2365.4-7.44-832.5-9.95-22.66 0.07c-2.12 14.56 4.07 0.44-6.65 11.8-78.32 82.98-374.67 169.97-475.74 202.71l-460.91 156.97c-26.94 9.06-54.79 11.77-69.5 22.32z"/> <path class="fil3" d="m7468.5 7496.8c29.28 8.79 333.8 6.04 391.25 6.6 29.75 0.3 339.05 10.39 362.55 3.37 24.68-7.38 12-4.28 19.94-13.29-24.17-27.89-55.01-55.11-82.12-85.75-28.13-31.76-50.33-62.04-73.52-102.28-27.65-48.02-94.45-203.9-79.49-267.8-1.07-1.51-3.06-5.28-3.28-4.48-0.22 0.81-2.26-3.53-2.47-4.94-2.35-16.13-1.98-3.96 0.19-19.26-24.92-36.87 9.8-175.2 25.67-218.68 63.61-174.27 216.47-309.84 410.02-372.85 151.15-49.2 318.24-35.87 483.83-37.3 167.5-1.46 352.59-9.23 518.11-1.57l103.35 5.48 29.02-54.39c-2.61-28.25-46.29-40.14-93.12-58.32-94.96-36.84-292.26-140.34-309.71-146.57l-2024.1-1.4c3.52 39.87 70.26 194.39 87.88 247.32l60.01 195.01c8.22 28.75 5.46 47.75 24.38 65.95 23.58-158.68 232.19-457.99 357.98-497.16-17.85 99.91-53.72 214.02-77.41 317.14-72.26 314.57-123.79 726.24-128.98 1045.2z"/> <path class="fil3" d="m9064.3 10150 618.38-3.83c587.6 3.56 1190.7 5.97 1779.5-2.95 193.57-2.94 399.84 1.17 590.38-7.93 95.73-5.16 200.06-4.82 294.98-7.17l283.2-15.02c1.52-0.46 3.67-1.43 4.88-1.84 1.23-0.4 3.33-1.09 4.82-1.98l-19.47-6.49c-0.55-0.12-24.28-3.75-25.9-3.95l-158.58-11.47c-151.82-13.46-493.23-22.24-652.89-27.6-144.18-4.82-287.28-15.36-430.5-17.69-150.3-2.45-300.88-2.07-451.05-5.24-594.41-12.55-1203.6-16.79-1797.1-14.31-110-11.27-1375.1-2.38-1518.1-1.91-252.44 0.81-505.89 4.32-758.07 2.25-254.05-2.08-514.55 6.42-768-0.53l-35.33 2.13c-153.07 7.6-320.83 1.49-476.3 3.52l-1406.7 14.6c-312.81 0.86-627.2 15.39-940.3 19.21-307.51 3.74-621.79 13.49-924.24 34.4 42.88 33.96 768.57 40.77 808.83 41.5 281.84 5.14 562.82 7.13 843.04 10.67 569.92 7.18 1140.5-1.28 1710.4 2.22 285.04 1.74 570.14-4.81 855.12 1.9 283.58 6.67 570-4.92 855.12-1.61 563.24 6.54 1159.4-12.04 1714-0.87z"/> <path class="fil5" d="m9490.9 9769.1c-6.5 17.83 0.09 13.37-46.91 33.12-76.66 32.22-211.52 80.98-273.27 126.63-48.82 36.09-42.17 49.41-76.45 87.53l10.72 6.63c593.46-2.48 1202.6 1.76 1797.1 14.31 150.16 3.17 300.74 2.79 451.05 5.24 143.22 2.33 286.32 12.87 430.5 17.69 159.66 5.36 501.08 14.14 652.89 27.6l158.58 11.47c1.61 0.21 25.35 3.83 25.9 3.95l19.47 6.49c-1.49 0.9-3.6 1.58-4.82 1.98-1.22 0.41-3.36 1.38-4.88 1.84l-283.2 15.02c-94.91 2.35-199.25 2.01-294.98 7.17 4.36 13.89 11.6 9.43 18.3 44.49 18.85 98.75-67.32 269.99-70.41 371.65l117.3 5.47 392.78 6.91 139.16 0.57c5.29-80.56 1.39-169.18 0.71-248.92-0.37-42.38-1.12-85.06-1.12-127.4 0-21.6 0.83-36.38-2.25-57.64-11.02-76.1 13.31-125.15-71.31-249.11l-84.77-103.36c-16.32-16.25-21.38-13.87-40.1-28.22l-607.48 1.24 6.11 11.4c-38.25 6.39-39.61 21.61-65.76 37.48l-183.91 107.44c-25.64 13.61-32.76 31.03-69.12 12.24-41.82-21.6-23.34-13.02-77.6-20.54-91.81-12.71-467.61-15.11-573.1-15.21-127.74-0.11-258.26 1.85-385.7-1.16 40.2-30.19 173.77-119.53 193.29-149.4-79.25-5.73-164.82-3.57-244.5-6.59l-715.93-30.79 32.38-11.97c-30.05 0.07-55.43 1.5-77.76 15.76-29.77 18.99-16.65 15.82-54.99 29.98-39.55 14.62-84.05 35.06-135.87 38.97z"/> <path class="fil2" d="m9904.5 8042.3c110.26 14.4 2295.8-26.07 2352.1-27.97 287.05-9.66 2154.8-23.08 2262.6-124.28-34.07-79.09-689.75-99.48-794.52-104.85l-212.75-10.08c-18.02-1.16-53.69-2.11-67.13-12.9-46.49 13.4-56.06 22.9-122.81 37.86-476.85 106.87-1091.8 111.81-1586.9 110.43-167.38-0.47-467.94 13.67-613.99 4.23l-9.68-16.72c-6.67 21.23 2.77 13.88-30.64 14.54l-267.53-0.77c-154.79 0.9-863.32 12.58-917.55-9.15l-11.78 6.48c-1.3 0.49-3.01 1.08-4.41 1.5l-297.25-8.09c-193.16-15.18-409.34-39.41-597.96-81.33-47.34-10.52-91.73-21.66-136.91-33.11-44.98-11.4-90.81-29.98-134.81-39.1-16.43 12.5-533.74 33.26-608.59 39.95-95.95 8.6-194.47 16.34-290.52 29.51-48.72 6.67-92.46 14.05-140.09 24.43-41.57 9.07-98.51 17.54-111.25 56.03 94.37 96.39 923.35 126.95 1110 129.86l916.11 14.38c89.23 0.17 233.88-11.37 316.36-0.88z"/> <path class="fil1" d="m9682.7 10147c-29.05 29.85-10.78 148.4-8.64 199.74 2.77 66.18 11.61 133.86 9.53 199.7 99.95-2.94 203.86 2.68 304.88 1.01 305.5-5.07 610-6.08 915.77 1.39 98.6 2.41 203.89-4.79 303.22-2.47l612.16 5.6c94.86-1.52 199.04 6.56 298.12 5.78l-117.3-5.47c3.09-101.67 89.25-272.9 70.41-371.65-6.69-35.06-13.93-30.6-18.3-44.49-190.54 9.09-396.81 4.99-590.38 7.93-588.74 8.91-1191.9 6.5-1779.5 2.95z"/> <path class="fil3" d="m13799 2644.2c6.7 127.35 29.14 269.02 42.8 398.41l118.78 1190.2c13.56 12.07 16.21 9.93 37 18.12l33.86 9.03c14.84 0.36 34.31-94.5 41.28-119.58l113.51-359.68c54.29-148.94 107.59-316.78 174.68-456.6 69.91-145.68 124.27-293.59 203.27-427.56l82.82-153.87c8.89-16.33 19.95-31.87 29.59-49.27 40.93-73.81 82.54-127.99 123.79-195.13l-119.4-46.5c-170.22-42.04-264.75-32.42-424.19 9.06-125.73 32.73-237.37 86.12-351.06 140.52-50.97 24.38-82.21 52.41-106.72 42.87z"/> <path class="fil10" d="m9571.6 6329.7-29.02 54.39c17.45 27.12 335.29 195.76 390.04 227.18 135.2 77.55 261.56 149.15 393.87 224.77 132.95 75.98 259.21 155.91 387.63 231.09 53.15 31.12 52.49 27.51 53.49 101.52 0.67 49.44 4.88 99.14 5.7 151.5 1.39 89.54 18.82 223.33 0.15 305.51-41.39 13.49-245.43 34.72-260.32 47.17l88.91 16.92c145.1 5.67 315.38 16.15 425.37-59.82 19.3-24.36 71.91-49.48 106.33-69.28 38.6-22.2 73.72-39.74 113.96-61.82 76.08-41.74 147.83-87.49 221.49-130.38 34.77-20.24 69.75-40.19 106.03-63.7 46.38-30.06 57.93-38.56 81.7-92.13 18.6-41.93 42.06-76.17 62.37-114.12 10.27-19.19 18.84-36.75 28.32-56.43l30.77-46.87c-25 2.79-57.09 14.07-89.15 18.71-223.93 32.44-284.48 73.5-490.09 17.01-49.53-13.61-145.75-16.37-166.24-60.51l-26.84-16.85c-31.3-24.63-51.99-29.95-64.65-70.5-8.23-26.35-6.73-21.99-30.96-36.18-14.23-8.34-23.56-12.93-38.14-22.62-118.4-78.66-408.88-162.79-555.58-220.59-123.18-48.53-249.41-94.59-374.86-140.76-62.99-23.17-124.67-49.57-186.62-74.02l-138.89-55.44c-22.44-9.25-27.89-16-44.75-3.75z"/> <path class="fil1" d="m14431 9635.5c145.66 4.49 316.92-2.07 463.56-3.17 155.66-1.17 311.43-0.21 467.11-0.4 312.82-0.36 627.44 1.71 940.02-2v-333.1l-1943.5 1.37c27.05 43.19 32.52 100.92 44.4 161.32 10.28 52.26 28.94 123.49 28.42 175.98z"/> <path class="fil6" d="m10275 1686c60.23 10.62 116.26 6.11 135.77 123.57 7.46 44.86 16.95 141.17 46.79 176.97 19.74 23.68-1.98 8.02 25.97 18.51-4.47-39.86-15.06-146.77-4.49-180.25 10.84-34.33 63.23-74.74 84.96-102.41 7.38-80.4-59.11-278.52-45.77-357.56-6-10.4-6.8 1.62-4.27-20.88 15.58-6.08 189.92-29.36 212.44-28.88-3.17-1.72 3.54-10.09-34.26-5.27l-1.49-5.74c-11.35-29.32-171.38-111.43-132.01-175.56 42.71-69.55 306.87 57.37 472.86 63.92 135.54 5.33 265.56-57.19 303.07-148.97 54.01-132.17-51.88-255.38-174.75-262.7 38.73-7.93 3.21 11.55 29.82-12.24-149.36 5.04-293.06-67.8-427.85-7.54-101.74 45.49-291 174.51-373.46 245.17l-129.1 113.57c-30.21 29.61-21.24 51.6-18.91 101.03 7.28 154.75 27.89 311.41 34.69 465.27z"/> <path class="fil10" d="m8007.1 7037.7c-14.96 63.91 51.84 219.79 79.49 267.8 23.19 40.24 45.39 70.52 73.52 102.28 27.11 30.64 57.95 57.86 82.12 85.75 18.37 8.86 34.16 26.38 52.54 40.3 18.3 13.87 33.89 24.94 52.87 38.16 22.32 15.57 95.01 57.92 106.47 70.92 31.66 8.97 91.32 41.74 128.61 57.82 44.78 19.29 82.08 32.25 129.82 48.34 44 9.12 89.83 27.7 134.81 39.1 45.18 11.44 89.56 22.59 136.91 33.11 188.62 41.91 404.8 66.15 597.96 81.33l297.25 8.09c1.4-0.43 3.11-1.02 4.41-1.5l11.78-6.48c-25.2-30.06-11.13-20-16.49-65.13l-4.99-18.22c95.8-48.92-9.88-33.64 105.55-71.37 50.29-16.44-6.49-16.56 99.7-77.47-4.52-3.1-295.85-2.74-333.72-3.98-52.37-1.71-99.7-8.91-157.78-12.09-43.98-2.41-107.3-10.01-151.24-17.23-197.67-32.45-382.71-62.26-570.14-116.36-232.38-67.05-678.06-214.34-817.24-427.51-15.16-23.23-25.55-10.56-37.09-49.75-2.97-10.09-7.53-16.4-0.98-28.2l-4.14 22.3z"/> <path class="fil3" d="m13513 2726.7-50.07 171.79c-13.3 59.6-27.73 118.73-39.35 179.49-24.15 126.15-39.57 252.26-53.36 381.33-8.9 83.47-14.92 116.07 7.28 192.48l87.19 349.24c6.58 31.57 13.02 55.92 19.72 89.74 10.99 55.43 9.44 48.17 27.94 56.22l20.63 7.57c58.98-10.65 137.23 21.33 179.41 15-11.02-32.72 22.61-656.34 27.11-747.61 6.06-122.78 9.42-247.87 14.9-371.38 5.52-124.42 14.7-252.22 16.79-376.02-25.2 10.31-21.06 2.68-44.88 8.67l-93.72 33.37c-33.85 12.81-62.05 36.28-95.51 30.01-24.26-4.54-20.9-2.51-24.08-19.89z"/> <path class="fil11" d="m12135 4632.7c-14.67 7.52-42.14 8.8-62.05 10.27-29.94 2.21-51-4.3-54.02 21.46l3.6 95.86c85.71-4.33 174.03-13.75 261.11-21.55 68.83-6.19 202.73-26.01 264.28-20.01 12.07 27.28 26.26 174.27 31.27 218.09l42.73 423.32c17.02 76.69 17.71 170.8 15.62 262.07-5.13 224.35-210.24 467.99-356.23 630.54l-472.66 521.91c-103.26 113.55-108.79 147.98-323.11 173.66-76.48 9.17-140.06 23.74-218.85 29.09-55.94 3.79-186.61 7.76-233.51-7 20.49 44.13 116.71 46.9 166.24 60.51 205.61 56.49 266.16 15.43 490.09-17.01 32.05-4.63 64.14-15.92 89.15-18.71l339.68-298.98c31.1-32.98 50.6-49.55 81.59-76.18 16.2-13.93 23.39-25.53 38.89-39.76 43.09-39.56 178.65-180.93 204.78-197.9 12.63-30.87 34.7-45.45 52.42-66.47 17.5-20.79 34.46-41.64 51.75-63.51 20.61-26.06 75.03-115.44 97.57-130.13 21.6-72.93 24.96-80.05 29.89-172.59 10.52-197.5-13.11-760.97-22.32-976.63-5-117.01-21.24-276.77-15.99-387.08-45.91 12.85-451.17 49.86-501.89 46.73z"/> <path class="fil3" d="m-0 9759.6c450.48 1.97 901.48-4.87 1352.4-1.91 900.47 5.93 1804.5-3.64 2704.8-1.95l1000.8-11.07c54.11-1.21 108.64-3.15 163.56-4.09 28.37-0.48 56.75-0.7 85.15-1.45 20.66-0.54 57.85-0.45 75.17-11.45l-160.41-14.83c-54.02-1.88-108.88-5.04-163.66-7.32-327.5-13.63-667.63-13.76-994.2-21.51-448.26-10.66-898.28-10.7-1346.7-11.86-905.74-2.37-1810.1-9.2-2717-4.53v91.99z"/> <path class="fil3" d="m14431 9635.5c-12.76 6.33-267.09 2.55-306.52 2.25-54.01-0.39-110.41-3.93-163.75-3.31-52.33 0.63-104.14 7.48-157.89 8.26l-33.12 0.12c-83.61 43.19-247.15 37.34-324.51 41.79-324.88 18.7-733.9-13.37-1060.2 15.68 6.15 37.74 9.56 26.72 65.72 49.88 65.55 11.13 165.65 3.09 236.39 2.76l727.75 3.46c320.7-1.61 644.4-3.83 964.26-3.03 640.24 1.6 1281.8 6.43 1922.5 2.12v-125.55c-312.58 3.72-627.2 1.64-940.02 2-155.68 0.19-311.45-0.77-467.11 0.4-146.64 1.1-317.9 7.66-463.56 3.17z"/> <path class="fil9" d="m11353 3311.1-2.04-20.16c0.69-3.94 6.93-22.76 8.8-28.9 38.37-126.26 10.61-136.48 67.47-134.17-1.73 32.21-58.82 151.73-74.22 183.23zm-121.39-207.31 140.73 24.24c0.98 94.73-57.63 244.68-99.24 327.45-18.16 36.13-44.57 61.28-59.29 98.36 27.55-13.01 36.47-46.49 103.5-102.85 96.68-81.3 219-216.35 356.76-234.05 145.77-18.73 346.85 35.17 475.24 98.81 73.53 36.44 142.87 90.62 195.38 150.17 38.35 43.49 71.24 90.14 99.79 143.13 101.46 188.28 127.05 417.63 158.57 625.06 14.7 96.79 40.22 255.48 40.46 352.07l44.08-2.76c12.69-65.58-53.83-491.23-68.37-585.29-38.96-252.04-59.12-286.43-151.93-507.77-97.99-118.44-99.6-141.87-234.45-258.07-149.46-128.81-275.64-198.74-449.15-285.15-29.38-14.64-49.6-29.6-76.56-44.47-27.83-15.35-53.11-25.88-81.87-39.63-55.23-26.4-110.93-48.64-171.08-71.88-44.48-17.2-163.7-46.99-173.93-55.98l-5.78-7.41c9 102.3 0.23 292.03-42.88 376.02z"/> <path class="fil4" d="m5661 7525.5c-9.68 73.08 6.57 149.01 14.3 218.99l1.71-6.01 26.82 104.83c23.24 18.33 43.99 109.52 161.58 203.41l30.76 23.88c29.61 10.46 52.22 27.07 84.07 30.4 29.12 5.25 4.79 2.28 15.12-4.73-2.08-114.83-43.14-270.43 51.13-427.71 40.37 13.95 78.57 226.24 69.42 316.56-3.9 38.49-14.8 81.56-16.36 117.21l11.09 2.87 11.08 2.12 78.1-31.97c10.55-17.85 72.08-66.99 91.19-92.31l73.42-110.62c1.5-27.35 33.02-101.72 39.36-145.89l13.8-110.07c2.43-127.3-10.72-176.82-30.39-292.16-46.09 9.28-151.84 104.83-196.94 127.42-13.71 20.04-57.96 46.62-79.79 65.66-35.21 30.7-56.95 62.64-78.37 69.92-30.36-45.1-47.35-69.63-93.88-98.27-12.71-7.83-24.55-12.56-36.93-26.12-9.5-4.61-162.88-126.81-194.4-137.19-35.1 53.11-33.19 135.07-45.88 199.78z"/> <path class="fil11" d="m9158.2 6116.9 10.54 7.87c17.45 6.23 214.75 109.72 309.71 146.57 46.83 18.18 90.51 30.07 93.12 58.32 16.86-12.25 22.31-5.51 44.75 3.75l138.89 55.44c61.94 24.44 123.63 50.85 186.62 74.02 125.45 46.17 251.68 92.23 374.86 140.76 146.7 57.8 437.18 141.94 555.58 220.59 14.58 9.69 23.9 14.28 38.14 22.62 24.22 14.18 22.73 9.83 30.96 36.18 12.66 40.55 33.36 45.87 64.65 70.5 2.02-25.92-2.32-19.03 18.26-29.19 51.17-25.28 413.23-75.1 486.58-96.79-31.2-16.91-331.18 30.92-388 37.86-76.99 9.41-119.02-0.82-161.45-45.2-128.84-134.75-177.55-201.28-372.56-282.35-100.86-41.93-201.34-86.13-300.98-129.32l-911.91-398.38c-50.91-21.55-103.01-45.08-152.54-65.76l-150.34-62.56c-0.18 120.94 32.06 164.48 85.13 235.09z"/> <path class="fil7" d="m4126.2 7938.9c126.88 82.07 650.37 107.87 834.4 120.05 318.04 21.05 571.25 19.53 879.68 19.53 6.99 0 24.53 0.4 30.38-0.27 26.04-2.92 9.52 2.57 25.41-7.59l-30.76-23.88c-117.58-93.89-138.34-185.08-161.58-203.41l-0.59 8.11c-5.82-17.44-6.48-18.03-16.41-32.49l-416.62-3c-296.56 3.78-702.4 20.1-993.85 61.8-64.81 9.27-155.32 14.08-150.06 61.14z"/> <path class="fil5" d="m14811 4344.6 74.68-4.91c-3.15 39.51-92.03 217.54-114.11 272.58l-103.16 271.9 163.77-209.86c24.52-27.04 36.46-44.87 57.19-70.1 40.86-49.73 77.63-85.35 120.45-134.09 25.76-29.31 92.66-123.1 131.83-124.14-3.13-27.77 240.02-332.34 265.67-364.31l149.75-171.83c40.32-36.37 164.22-171.64 212.8-211.49l113.67-98.47c23.92-20.34 43.06-27.25 51.81-56.75-344.02-32.43-721.26 398.75-886.71 635.12-61.82 88.32-113.15 191.85-144.6 237.73-23.47 34.22-69.47 9.85-93.05 28.62z"/> <path class="fil10" d="m10179 6016.7c29.67 23.51 56.09 43.07 88.24 66.09l282.25 189.12c49.68-29.11 164.36-13.1 233.53-13.99 78.03-1.02 161.43-6.96 243.73-5.91 14.5 29.59 38.58 105.08 30.89 142.14-4.09 19.72-12.51-2.53-2.25 14.43 34.6-4.29 61.14-30.62 97.78-39.82-14.79-10.76-13.83-4.23-43.14-0.53-10.39-44.98-20.36-50.86-17.84-114.73 132.45-10.28 301.88-4.96 418.02-17.6 20.09-2.18 42.84-7.25 59.98-13.12 10.72-3.67 16.58-5.52 26.51-9.82 14.69-6.38 33.64-12.49 28.93-43.37l-59.18-153.51-19.6-3.94c-33.03-3.65-126.74 4.13-169.73 4.77-199.47 2.96-1068 10.47-1198.1-0.21z"/> <path class="fil3" d="m6892.6 7532.6c16.38-4.14 7.91 1.71 19.65-7.69 14.78-11.82 4.65 8.52 10.88-20.02 4.06-18.59 0.06-34.4 7.16-53.97l13.36-1009c0.6-95.54 7.45-86.9-20.22-175.34-13.82-44.11-32.92-118.76-55.44-147.18l-382.82 2.92c0.85 19.01 113.14 268.32 132.01 318.05 40.88 107.7 82.04 227.93 113.45 341.91 34.12 123.83 168.75 650.94 161.97 750.31z"/> <path class="fil10" d="m10726 1315c78.37 16.23 356.19 124.86 401.38 119.75 76.79-30.51 180.4-123.61 249.66-175.82 20.85 38.62 52.55 194.37 63.84 248.69 8.66 41.7 18.34 90.99 20.05 135.61 1.96 51.16-5.85 108.66 3.07 157.36-56.15-56.36-75.05-81.53-138.22-62.79-50.7 15.06-141.04 21.62-176.08 47.97l-2.43 55.11 232.5-22.39 75.71-3.89c1.93 20.77 3.71 80.79 12.53 97.66 27.47-20.15 21.93-87.38 25.45-121.83 5.16-50.57 7.48-84.57 17.28-133.51 7.87-42.97 2.27-222.75-4.23-269.62-12.29-88.47-44.44-141.93-81.16-204.75 7.87-33.02 48.2-92.44 63.85-136.44 71.81-201.82-87.43-282.65-299.97-277.7-26.61 23.8 8.9 4.31-29.82 12.24 122.87 7.32 228.76 130.53 174.75 262.7-37.51 91.77-167.53 154.3-303.07 148.97-165.99-6.54-430.15-133.47-472.86-63.92-39.36 64.13 120.66 146.24 132.01 175.56l1.49 5.74c37.8-4.82 31.1 3.55 34.26 5.27z"/> <path class="fil1" d="m9885.4 9672.4-125.88 11.97-32.38 11.97 715.93 30.79c79.67 3.03 165.24 0.87 244.5 6.59l1155.8 17.73 607.48-1.24c-56.16-23.16-59.57-12.14-65.72-49.88 326.25-29.04 735.27 3.02 1060.2-15.68 77.36-4.45 240.9 1.39 324.51-41.79-160.23 9.13-325.84 4.46-488.22 4.95-163.74 0.48-327.49 1.51-491.24 1.72-82.89 0.1-165.77 0.36-248.65 0.42-79.81 0.06-158.25 6.85-236.55 4.3-43.38-1.42-64.59-10.61-115.21-10.26l-363.86 0.93c-324.48 2.81-646.17 6.28-970.34 10.09-323.32 3.78-652.16 2.6-970.32 17.38z"/> <path class="fil3" d="m14358 9298.2 1943.5-1.37v-121.04c-98.08 0-2109.8-5.93-2149.9 9.13l-27.22 108.78 233.62 4.5z"/> <path class="fil7" d="m3820.8 7628.7c60.76 32.22 774.85 84.28 898.32 89 157.79 6.04 314.22 16.22 472.22 20.65 69.98 1.96 459.92-0.91 483.93 6.14-7.73-69.98-23.98-145.91-14.3-218.99-1.26 1.1-2.85 2.59-3.81 3.22l-108.16 11.86c-39.19 0.55-75.38 2.44-115.04 3.05-79.83 1.21-156.29 4.68-236.54 7.8-153.91 5.98-306.17 12.97-460.69 21.72-155.04 8.78-305.4 16.37-460.99 25.09-79.88 4.48-152.52 10.82-230.81 14.16-104.33 4.48-105.59 17.28-224.13 16.31z"/> <path class="fil5" d="m9050.7 10546 632.9-0.17c2.08-65.84-6.76-133.52-9.53-199.7-2.14-51.34-20.42-169.88 8.64-199.74l-618.38 3.83-13.63 395.77z"/> <path class="fil5" d="m11329 8245.9c43.94 34.6 194.27 27.9 254.57 90.64-1.75 21.71 1.4 9.77-6.72 27.02l-11.19 16.13c36.76-4.98 11.38-4.2 20.3 7.65-15.77 54.73-81.14 68.21-144.33 83.81-62.44 15.41-120.85 29.54-184.79 38.65-137.73 19.59-277.11 34.55-415.64 41.21 1.47 1.19 3.9 0.84 4.68 3.24 3.89 11.92 1.51-1.66 18.35 11.39 63.97-7.34 474.64-1.25 579.7-2.22 372.86-3.45 760.32-18.62 1134.1-24.54 91.59-1.45 185.65-8.33 278.91-10 85.58-1.53 201.36-18.12 283.37-10.51 14.3-9.64 36.63-0.72 57.96-15.41-365.91-20.47-921.8-12.1-1277-125.13-26.91-8.56-51.9-16.9-71.62-31.87-9.43-7.17-19.03-15.71-24.67-26.64-10.33-20.06-14.92-27.89 5.48-22.96-2.09-48.8 14.72-35.54 36.42-63.38-49.23 11.32-211.29 8.98-271.35 9.63-88.08 0.95-183.49 2.59-266.5 3.31z"/> <path class="fil4" d="m11817 4912.9c0.54-50.74 19.16-148.23 26.37-207.11 8.58-70.09 21.46-153.62 21.92-224.16l-555.3-0.49c-3.74 29.54-16.34 364.71-8.5 407.53 5.12 27.92 9.19 25.24 38.82 27.03 73.67 4.48 162.13 1.07 237.18 0.77 68.14-0.29 176.49 5.51 239.52-3.58z"/> <path class="fil4" d="m10039 4905c66.44 1.03 409.45 5.97 443.61-7.22 29.85-11.51 31.91-41.9 34.02-76.95 2.2-36.46 0.78-77.7 1.04-114.72 0.57-75.98 1.19-151.91 2.08-227.88-188.33-0.74-421.98 12.66-612.18-3.19 11.41 127.98 120.93 381.32 131.43 429.97z"/> <path class="fil7" d="m7468.5 7496.8c-2.48 47.51-14.13 241.21-3.52 271.43 8.55 10.26 120.68 7.83 133.99 8.12 215.26 4.57 451.15 3.54 655.71-54.8l190.68-58.65c25.43-14.99 17.23 1.52 8.76-20.04-11.45-13-84.15-55.35-106.47-70.92-18.98-13.22-34.57-24.28-52.87-38.16-18.38-13.92-34.17-31.43-52.54-40.3-7.94 9 4.74 5.91-19.94 13.29-23.5 7.02-332.8-3.07-362.55-3.37-57.45-0.57-361.97 2.18-391.25-6.6z"/> <path class="fil0" d="m2687.5 9330.6 1745 4.14c13.48-26.28 1.79-44.17-9.57-69.46-5.06-11.26-6.54-18.87-11.24-30.92-5.91-15.19-9.97-19.82-17.37-35.51l-1503.2 2.02c-1.73 0.81-3.9 1.48-5.4 1.89-1.51 0.41-3.59 1.27-5.48 1.72l-41.89 3.8c-18.22 0.36-36.42 0.73-54.63 1.02-32.09 0.5-65.92-0.72-97.16 3.77l1 117.51z"/> <path class="fil11" d="m10602 7689.7c1.81 1.19 4.01 2.32 5.71 3.11 1.64 0.77 3.63 2.02 5.63 2.88l29.74 6.79c-45.99 23.81-334.17 46.32-398.72 54.38-209.38 26.15-228.94 85.45-365.16 80.67 5.37 45.13-8.71 35.07 16.49 65.13 54.23 21.73 762.76 10.05 917.55 9.15l267.53 0.77c33.41-0.66 23.96 6.68 30.64-14.54-8.3-40.26-25.92-92.79-37.61-134.78l-26.31-106.91c-9.1-28.31-2.53-16.96-20.12-26.46-109.99 75.97-280.26 65.49-425.37 59.82z"/> <path class="fil3" d="m4432.5 9334.8c478.45-2.04 1053.2-10.41 1535.1-29.13 84.14-3.27 171.26-7.76 254.92-9.11l184.77-5.51c35.8-6.33 32.49-10.99 33.23-48.25-159.82-13.07-337.42-12.98-503.11-18.12-171.56-5.32-343.84-12.03-515.65-12.42-339.67-0.8-688.49-17.92-1027.4-13.35 7.4 15.69 11.46 20.32 17.37 35.51 4.69 12.04 6.18 19.66 11.24 30.92 11.36 25.29 23.05 43.19 9.57 69.46z"/> <path class="fil6" d="m11547 6012.2 19.6 3.94 59.18 153.51c4.7 30.88-14.24 36.98-28.93 43.37-9.93 4.3-15.8 6.16-26.51 9.82-17.14 5.87-39.89 10.94-59.98 13.12-116.14 12.64-285.56 7.32-418.02 17.6-2.52 63.88 7.45 69.75 17.84 114.73 29.3-3.71 28.35-10.23 43.14 0.53 157.95-33.08 190.46 48.6 310.17 95.62l50.04 11.7c239.32 7.89 227.89 73.89 260.24-3.26 33.46-79.74 81.68-174.39 110.83-251.09 5.34-20.47 32.77-62.4 8.46-72.25l-125.13-87.7c-23.39-17.32-38.68-29.23-59.01-44.13-24.27-17.79-37.29-22.87-61.26-37.71l-100.66 32.2z"/> <path class="fil11" d="m9044.6 4759.5-3.01-53.99c78.18 8.14 496.11 16.03 523.97 35.4 29.9 36.43-13.26 826.86 22.54 868.86 13.41 15.74 60.86 43.49 83.35 40.49-2.04-92 17.3-412.44 21.6-531.82 3.19-88.59 6.98-178 10.51-266.9 2.24-57.09 24.65-225.01 0.82-259.09l-672.85-20.11c9.35 44.1-9.15 153.62 13.08 187.16z"/> <path class="fil4" d="m2666.6 8912.4c166.47-5.8 461.33 3.44 650.79 2.32 214.79-1.26 428.52-6.42 642.84-9.34 329.65-4.48 636.37-18.42 958.12-26.54 102.78-2.6 220.06-15.2 312.68-15.07-406.9-32.24-856.14-38.3-1270.8-43.85-129.19-1.73-1289.2-1.9-1302.1-8.02l8.44 100.5z"/> <path class="fil3" d="m12443 6382.3 837.36 0.62c-2.51-28.04-45.18-225.77-67.15-260.54l-568.46-0.18c-22.54 14.69-76.96 104.08-97.57 130.13-17.29 21.86-34.25 42.72-51.75 63.51-17.72 21.02-39.79 35.6-52.42 66.47z"/> <path class="fil11" d="m11231 3103.8c43.11-84 51.88-273.72 42.88-376.02l1.33-84.57c-27.57 4.74-50.18 22.43-80.16 31.26-131.23 38.63-291.77-25.57-404.09-87.32-22.54-12.38-44.64-24.19-65.52-37.51-21.05-13.42-42.73-30.88-64.8-40 7.22 66.08 50.97 159.76 80.35 212.46 28.72 51.51 84.84 122.04 127.42 163.74 74.98 73.42 155.39 132.6 258.27 178.65 30.71 13.75 80.64 20.58 104.31 39.32z"/> <path class="fil6" d="m11843 9751.4-1155.8-17.73c-19.52 29.86-153.09 119.21-193.29 149.4 127.43 3.01 257.95 1.05 385.7 1.16 105.49 0.1 481.29 2.5 573.1 15.21 54.26 7.52 35.78-1.07 77.6 20.54 36.37 18.79 43.49 1.36 69.12-12.24l183.91-107.44c26.15-15.87 27.51-31.09 65.76-37.48l-6.11-11.4z"/> <path class="fil5" d="m13722 8509.4c36.53 14.17 133.02 83.59 165.49 109.12 48.22 37.93 98.82 89 137.3 141.34 63.91 86.92 153.92 269.78 122.98 416.53l188.03-1.55c-0.44-41.55-50.2-282.02-60.76-345.66-9.74-58.62-17.87-111.35-29.16-171.01-5.9-31.12-35.48-146.74-20.5-175.15l-503.39 26.39z"/> <path class="fil3" d="m2687.5 9330.6-1-117.51c31.25-4.49 65.07-3.28 97.16-3.77 18.22-0.29 36.42-0.66 54.63-1.02l41.89-3.8c1.89-0.45 3.96-1.31 5.48-1.72 1.49-0.41 3.67-1.09 5.4-1.89-83.48-7.01-186.54 2.87-271.09 3.37l-800.37 16.86c-252.14 9.32-549.24 12.89-794.49 26.82-43.88 2.5-83.8 6.11-127.77 7.45l-122.07 17.63c140.85 26.19 761.3 34.12 947.08 39.35 83.87 2.37 899.67 26.02 965.14 18.24z"/> <path class="fil5" d="m14991 8329.1c18.05-11.26 4.01-4.99 26.55-11.47-18.63 90.93-233.25 94.17-260.37 130.96 275.28-0.43 869.36-55.72 1167.8-80.28 123-10.12 255.88-35.78 376.38-40.74v-16.47c-283.7 5.36-728.45-21.85-1022.6-53.4-103.82-11.14-226.58-36.29-326.01-36.49 14.19 13.31 45.53 23.34 57.8 44.73 9.27 16.18 10.75 19.29 1.3 37.52l-20.85 25.65z"/> <path class="fil2" d="m4026.6 8465.1c78.48-2.02 266.14 25.84 326.64 11.18 52.31-10.82 227.11 6.32 298.33 6.81 100.93 0.69 192.49-5.98 297.17-5.88 344.8 0.36 1297.5-9.79 1623.7-115.23 30.81-9.96 33.89-11.36 38.14-42.5-31.73 0-136.77 30.64-181.53 38.13-64.56 10.8-126.4 18.82-192.7 25.95-419.91 45.14-1286.3 66.11-1712.1 48.2-279.19-11.74-856.13-24.11-1117.6-97.45-36.62-10.28-54.43-19.25-82.05-29.71 7.5 92.21 317.57 106.28 354.14 120.74 25.62 10.14-2.31 9.13 38.44 11.44 40.33 2.27 274.85 9.57 299.62 21.95 1.69 0.84 3.56 2.32 4.9 3.07 1.39 0.78 3.35 2.13 4.94 3.31z"/> <path class="fil12" d="m4895.9 541.59c0.91 21.85 15.18 21.15 89.12 22.89l338.85 8.76c350.77 15.51 744.63 0.29 1104.7 5.26 251.19 3.47 492.76 8.23 745.87-0.66 72.57-2.55 501.41-5.88 532.45-25.95-61.03-36.29-1512-30.1-1824.1-30.39-335.88-0.34-653.24 18.59-986.82 20.09z"/> <path class="fil2" d="m13140 8518.4c20.81 4.39 92.14 4.76 114.76-4.69 1.87-0.78 6.46-3.66 8.12-4.51 9.99-5.19 8.17-5.22 15.38-7.71 99.79-34.49 152.61-2.59 208.99-2.83 94.91-0.4 148-7.41 234.35 10.71l503.39-26.39c75.11 5.66 193.43-10.3 270.59-14.22 85.64-4.36 178.11-19.52 261.58-20.17 27.12-36.79 241.75-40.03 260.37-130.96-22.54 6.48-8.51 0.22-26.55 11.47-124.02 43.24-207.78 63.16-354.31 78.77-628.15 66.92-2060.7 95.18-2655.3-55.41-100.53-25.47-117.98-45.58-151.28-56.07-20.4-4.93-15.81 2.9-5.48 22.96 5.64 10.94 15.24 19.47 24.67 26.64 19.71 14.97 44.7 23.32 71.62 31.87 355.22 113.03 911.1 104.66 1277 125.13-21.33 14.69-43.66 5.77-57.96 15.41z"/> <path class="fil2" d="m12002 5309.9c-11.27 136.59-42.73 305.44-98.65 413.99-43.62 84.66-102.75 150.89-177.71 204.23l-78.23 51.84c23.96 14.84 36.98 19.92 61.26 37.71 20.33 14.9 35.62 26.81 59.01 44.13l125.13 87.7c22.64-37.79 13.69 10.38 57.39-93.35l130.26-306.81c47.46-107.27 14.64-124.42-12.94-229.73-9.86-37.65-22.64-77.28-32.69-112.55-5.78-20.3-11.21-38.71-14.5-58.62-3.69-22.2-0.87-50.52-18.33-38.56z"/> <path class="fil7" d="m14081 7565.7c-15.87 8.26-45.86 7.13-61.73 2.4-53.98 12.58-105.69-3.22-151.23 9.48-25.62 6.37-79.07 46.09-108.56 63.07-32.07 18.47-90.93 39.16-114.11 56.26 13.34-2.55 75.16-5.15 90.4-6.41l558.85-0.48c70.41 0.05 145.98-8.46 216.54-5.72 85.56 3.34 806.73-24.08 839.36-46.4-22.92-1.84-46.55 1.61-70.29-0.89l-207.19-18.33c-182.03-19.29-780.93-26.49-865.32-44.34l2.68-33.04-13.13 32.2-91.11 3.33c-30.7-5.11-9.92 2.86-25.17-11.14z"/> <path class="fil2" d="m1509.8 8163c36.77 13.45 136.93 48 174.29 48.34 114.66-8.72 70.41 1.11 178.6 10.66 666.13 58.83 1874.7 63.51 2516.8-16.24 89.5-11.12 291.23-20.81 305.01-105.73-26.74 10.35-40.44 20.11-77.03 30.41-273 76.81-1226.6 93.88-1484.2 92.86-376.28-1.48-847.73-9.33-1224.9-38.36-68.51-5.28-348.9-38.83-388.55-21.94z"/> <path class="fil12" d="m8338.9 320.85c-264.88 0.05-500.46 12.3-762.47 20.89 12.71 13.18 1.56 6.13 20.58 14.03 2.77 1.16 19.14 4.01 20.7 4.17 81.35 8.23 250.34 5.17 353.72 14.11 123.58 10.7 1568.9 6.18 1684.2-2.06 58.61-4.18 123.67-5.13 181.06-6.88l133.92-7.23c29.56-1.78 22.13 4.26 35.1-12.19-19.28-22.02-158.34-9.04-199.21-13.82-43.16-5.04 17.04-8.86-109.15-8.82l-927.9-6.63c-142.35 0.13-295.87 4.4-430.58 4.43z"/> <path class="fil11" d="m12014 5102-11.52 207.94c17.46-11.96 14.64 16.35 18.33 38.56 3.3 19.91 8.73 38.32 14.5 58.62 10.05 35.27 22.83 74.9 32.69 112.55 27.58 105.3 60.4 122.45 12.94 229.73l-130.26 306.81c-43.71 103.73-34.75 55.56-57.39 93.35 24.31 9.85-3.12 51.78-8.46 72.25 32.84-13.16 45.17-66.85 68.04-97.14 20.45-27.08 44.39-69.2 63.57-99.86 85.87-137.27 165.86-355.95 263.54-392.73 98.59-37.1 185.23-27.5 277.8-49.61-48.48-12.48-346.25-43.28-349.05-44.83-14.63-11.39-9.57-5.11-18.46-25.64l-32.17-94.84c-13.77-42.34-27.47-83.76-42.76-127.02l-79.31-217.56c-7.36-21.81-2.84-18.5-16.63-33.7l-5.39 63.14z"/> <path class="fil4" d="m9994.5 4463.2 523.23 1.84c2.63-29.6 1.42-57.5 1.43-86.41 0.01-27.66-0.43-102.11-11.55-83.38-0.91 1.5-3.76-1.31-5-1.61l-640.45-6.36c1.98 41.71 13.81 88.33 22.58 127.81 11.67 52.54 10.18 48.5 109.76 48.11z"/> <path class="fil5" d="m6025.4 10025 35.33-2.13c7.44-4.86-0.74-0.4 13.88-7.24l26.99-14.51c0.85-0.76 2.04-2.11 2.84-2.93 0.83-0.84 1.95-2.28 2.75-3.18 0.81-0.9 1.92-2.35 2.71-3.28 13.28-15.64 21.19-24.69 38.01-41.31 85.29-84.2 148.95-164.19 220.64-263.97 57.73-80.35 210.01-318.31 238.02-404.06-24.88-2.81-125.67 1.35-153.79 4.59-42.65 4.89-54.86 56.52-72.66 94.34-36.97 78.55-74.39 148.38-112.84 220.68-37.71 70.93-80.43 145.36-120.81 212.94-20.91 35-118.51 184.75-121.08 210.04z"/> <path class="fil3" d="m14059 6651c26.59 48.71 110.9 193.3 106.18 262.31 11.96-14.89 10.85-64.82 16.02-100.39 4.8-33.08 10.89-66.17 16.42-98.69l101.13-592.23-174.95 2.36-64.79 526.64z"/> <path class="fil7" d="m6199.8 8075.4c56.32-9.39 148.86-4.23 210.33-7.61 143.09-7.86 458.94-26.86 564.63-89.77l-26.46-48.3-231.07-33.36c-113.22 7.67-237.53-27.3-348.42-20.95-5.74 0.33-3.49 14.98-4.4-2.95l-73.42 110.62c-19.1 25.32-80.64 74.46-91.19 92.31z"/> <path class="fil4" d="m11310 4463.4c85.91 2.94 541.55 15.61 565.4-4.74 1.46-2.18 3.23-2.96 5.72-13.99 1.69-7.51 1.74-9.31 2.3-16.99 0.92-12.57 0.17-29.69 0.46-42.93 0.65-30.22 1.86-59.86 1.9-90.17l-533.21 1.56c-28.92 0.63-39.99-14.21-43.34 64.16-1.42 33.3-2.3 70.08 0.77 103.1z"/> <path class="fil5" d="m13645 7696.9c-13.86 4.23-87.59 35.53-91.11 40.12l309.46-0.69c233.91 4.24 732.34-4.45 946.32-17.83 95.68-5.99 200.48-5.66 296.93-13.51 366.99-29.87 508.38-16.84 849-9.99l61.08 2.08c23.67-4.36 10.9-0.49 23.84-9.24-105.4-0.49-237.23-15.28-345.47-23.14-45.17-3.28-216.9-10.82-251.21-22.53-34-11.6-55.3-2.85-93.7-4.28-32.63 22.31-753.8 49.73-839.36 46.4-70.56-2.74-146.13 5.77-216.54 5.72l-558.85 0.48c-15.24 1.26-77.06 3.86-90.4 6.41z"/> <path class="fil3" d="m2666.6 8912.4-8.44-100.5c-114.84 4.37-237.29 1.34-353.56 3.33l-952.3 23.81c-13.65 0.52-27.58 0.84-41.1 2.32-25.8 2.85-30.57 5.85-40.77 16.16 36.42 13.71 1314.7 67 1396.2 54.89z"/> <path class="fil2" d="m3744.4 7633.8c-4.01 26.05 1.66 23.04 30.66 28l172.62 27.53c261.64 31.84 460.88 51.3 729.86 66.37 268.07 15.02 502.35 28.28 768.52 27.91l201.36 1.55c21.32-2.17 23.47 9.44 29.05-40.29 0.22-1.87-0.01-4.3 0.52-6.37l-1.71 6.01c-24.01-7.04-413.95-4.17-483.93-6.14-158-4.43-314.43-14.61-472.22-20.65-123.47-4.71-837.56-56.77-898.32-89-24.49 0.76-57.71-6.1-76.41 5.08z"/> <path class="fil2" d="m5997.1 8112-16.9-10.99c-31.84-3.33-54.45-19.94-84.07-30.4-15.89 10.16 0.63 4.67-25.41 7.59-5.85 0.67-23.39 0.27-30.38 0.27-308.43 0-561.64 1.51-879.68-19.53-184.03-12.18-707.52-37.98-834.4-120.05-23.62 1.85-14.99-13.79-13.61 15.49 0.8 16.82 37.51 38.36 54.26 45.22 157.4 64.45 648.59 94.03 812.16 103 61.06 3.35 921.99 35.79 1005.3 14.69 15.02-3.79 3.81 1.26 12.73-5.29z"/> <path class="fil6" d="m10550 6271.9c27.62 25.2 201.95 131.51 245.23 156.88 62.22 36.45 94.48 72.62 131.95 53.14l128.72-73.34c-10.26-16.96-1.84 5.29 2.25-14.43 7.69-37.06-16.38-112.55-30.89-142.14-82.3-1.06-165.7 4.89-243.73 5.91-69.17 0.9-183.85-15.12-233.53 13.99z"/> <path class="fil3" d="m11022 9195.7c-1.34 1.08-3.34 2.16-4.39 2.77-1.03 0.59-3.08 1.93-4.33 2.63-34.13 18.83-77.29 36.74-92.23 77.36l832.5 9.95c-12.92-25.66-26.32-30.01-49.18-51.56-24.37-22.96-27.01-30.35-58.47-40.46 14.7-18.19-20.02-15.25 20.37-13.32-81.02 14.15-229.36 4.68-325.19 5.85-98.13 1.19-226.48 13.07-319.07 6.78z"/> <path class="fil8" d="m10079 7670.5c-106.2 60.91-49.41 61.03-99.7 77.47-115.43 37.73-9.75 22.45-105.55 71.37l4.99 18.22c136.22 4.78 155.78-54.52 365.16-80.67 64.55-8.07 352.74-30.58 398.72-54.38l-29.74-6.79c-2-0.86-3.98-2.11-5.63-2.88-1.69-0.79-3.89-1.92-5.71-3.11l-88.91-16.92c-69.72-11.13-139.47-44.32-215.39-41.8-78.73 2.61-143.97 26.53-218.24 39.5z"/> <path class="fil7" d="m6417.5 7616.5-13.8 110.07c40.27-1.59 100.68 11.04 146.17 13.44 51.58 2.74 101.93 3.67 154.2 3.9-17.1-59.62-11.7-205.32-34.55-252.58l-4.54 6.94-242.14 4.6-5.34 113.62z"/> <path class="fil2" d="m9518.5 8551.4c31.33 13.88 301.71 6.46 336.76 6.65 47.07 0.25 110.53 9.61 157.26 11.13 209.94 6.78 459.89-6.91 679.44-6.05 43.75 0.17 136.9 8.16 172.35 2.52-16.83-13.06-14.45 0.53-18.35-11.39-0.78-2.4-3.21-2.05-4.68-3.24 138.53-6.65 277.9-21.61 415.64-41.21 63.95-9.1 122.35-23.24 184.79-38.65 63.19-15.6 128.56-29.07 144.33-83.81-8.91-11.85 16.46-12.63-20.3-7.65-86.51 94.88-794.23 138.45-958.95 147.04-222.86 11.62-582.53 23.93-812.4 24.81-89.82 0.35-187.39-4.59-275.89-0.17z"/> <path class="fil1" d="m10898 9278.6 22.66-0.07c14.94-40.62 58.1-58.54 92.23-77.36 1.26-0.7 3.31-2.04 4.33-2.63 1.06-0.61 3.05-1.69 4.39-2.77l-908.18 26.62c-50.66 4.28-102.68 0.44-153.33 5.47-43.81 4.35-91.75 8.7-140.61 10.3 64.24 26.48 180.36 15.77 265.8 17.21 95.82 1.62 172.28 8.56 266.85 9.76 182.12 2.35 363.71 8.13 545.85 13.47z"/> <path class="fil5" d="m14431 9635.5c0.53-52.49-18.14-123.72-28.42-175.98-11.88-60.4-17.35-118.13-44.4-161.32l-165.5 1.42c30 78.42 67.86 299.56 96.67 334.96l141.66 0.92z"/> <path class="fil2" d="m8128 8557 249.87 8.49c35.07-29.76 98.57-13.68 153.05-23.08 53.71-9.27 132.33 10.15 174.78-0.54-6.24-4.26-688.98-44.74-772.78-53.16-182.81-18.34-553.46-49.93-669.47-149.51-4.33 1.91-28.91 4.65 4.1 45.68 49.3 61.3 298.02 100.17 368.01 111.51l460.83 53.35c21.33 2.06 16.63-0.51 31.6 7.26z"/> <path class="fil2" d="m11329 8245.9c83.01-0.72 178.42-2.36 266.5-3.31 60.06-0.65 222.12 1.69 271.35-9.63 35.36 0.02 164.08-34.49 216.22-41.85 215.83-30.49 280.92-30.5 470.41-50.26 137.38-14.31 172.37 5.8 182-75.77-24.38 4.39-22.48 18.26-88.35 38.81-35.33 11.02-63.19 15.47-99.27 21.66-418.44 71.92-987.56 80.67-1419.3 72.13-77.85-1.53-156.72-11.04-234.46-8.17l434.94 56.39z"/> <path class="fil5" d="m6364.4 7872.4c0.92 17.93-1.33 3.28 4.4 2.95 110.89-6.35 235.2 28.62 348.42 20.95l-13.1-152.44c-52.26-0.24-102.61-1.17-154.2-3.9-45.49-2.4-105.9-15.03-146.17-13.44-6.34 44.17-37.86 118.54-39.36 145.89z"/> <path class="fil2" d="m12980 2450.3c1.37 78.63-14.3 71.27 24.83 143.92 12.01 22.31 51.13 108.64 59.35 117.84 11.91-126.69-12.8-426.68-2.89-459.26 11.84-59.48-4.93-369.25-11.89-444.18-10.75 34.73-73.81 615.64-69.4 641.69z"/> <path class="fil12" d="m5980.2 8101 16.9 10.99c32.65 5.37 90.26 14.66 113.49-6.78l-11.09-2.87c1.56-35.66 12.46-78.73 16.36-117.21 9.14-90.32-29.05-302.61-69.42-316.56-94.26 157.27-53.21 312.88-51.13 427.71-10.33 7.01 14 9.98-15.12 4.73z"/> <path class="fil11" d="m10518 1364.8 3.77-18.34c74.18 5.56 352.17 105.64 462.04 138.97 60.93 18.48 114.84-8.15 143.74-50.63-45.19 5.11-323.01-103.53-401.38-119.75-22.52-0.49-196.87 22.8-212.44 28.88-2.53 22.5-1.72 10.48 4.27 20.88z"/> <path class="fil12" d="m5901.2 7462.9c12.38 13.56 24.22 18.29 36.93 26.12 46.52 28.64 63.52 53.17 93.88 98.27 21.41-7.28 43.16-39.22 78.37-69.92 21.83-19.03 66.09-45.62 79.79-65.66-30.6 3.13-31.63-18.12-73.04-63.03-95.59-103.7-91.65-41.04-171.2 24.72-7.72 6.37-10.37 7-16.84 13.42-14.78 14.66-11.98 23.52-27.89 36.09z"/> <path class="fil11" d="m10637 1868.3c-12.72 11.87-9.31-16.8-10.75 17.84l33.76 21.29c8.27 7.82 14.8 17.88 25.53 28.21 52.71 50.76 27.74 41.92 50.08 64.77 7.58-15.62-15.82-6.6 47.41-5.16 77.92 1.76 114.47-16.34 134.05-18.86 34.19-4.39 9.38-6.47 18.7 6.76 1.32-1.31 2.92-5.46 3.46-4.43l49.55-92.57c-6.88-16.67 8.62-8.8-24.14-12.86 24.91 0.36 23.13-0.51 36.98-11.48-120.63 10.29-236.38 7.63-357.79 28.4-11.7-10.27-12.98 16.47-6.83-21.89z"/> <path class="fil5" d="m11022 9195.7c92.59 6.28 220.94-5.6 319.07-6.78 95.83-1.17 244.17 8.31 325.19-5.85-5.26-4.86 4.23-0.92-11.56-5.45l-33.28-4.45c-13.35-1.67-25.84-4.24-40.71-7.24-195.69-39.45-255.27-86.82-412.22-23.04-23.42 9.52-134.09 40.14-146.49 52.81z"/> <path class="fil6" d="m10637 1868.3c-6.15 38.37-4.87 11.62 6.83 21.89 121.41-20.77 237.16-18.11 357.79-28.4-15.62-94.19 36.77-72.79-121.47-79.07-157.97-6.26-71.62-44.02-178.61 33.85-46.19 33.63-46.63 48.8-64.54 51.72z"/> <path class="fil11" d="m11147 1840.9c-2.52 41.91 7.46 85.62 42.7 111.85 6.96-15.52-2.69-6.4 13.71-7.52l70.29 2.85c61.23-0.81 40.78-4.15 65.59-8.79 30.77-5.74 8.39-5.93 18.17 5.06 25.07-23.64 10.06-63.03 33.31-112.87l-11.26-12.98-232.5 22.39z"/> <path class="fil10" d="m11634 6699.5-34-8.83c-17.12-3.83-33.67-8.09-52.96-9.81-35.02-3.13-84.81-0.91-121.57-0.94-38.36-0.05-83.57-0.91-120.04 10.34-0.44 0.13-13.08 4.51-13.81 4.79-3.45 1.34-8.24 5.72-9.18 4.1-0.8-1.36-3.14 1.34-4.62 2.2 40.58 10.35 281.44 106.79 320.58 82.3 0.04-0.02 70.17-66.29 35.6-84.16z"/> <path class="fil3" d="m12676 3513.9c5.62 68.32 36.84 177.17 49.44 251.51 10.37 61.11 27.69 210.38 44.35 255.59l15.76-704.61c-6.86 8.85-1.88 0.59-6.63 13.92-13.75 38.56-7.52 232.01-21.34 247.83-13.22 15.17-54.03 13.57-55.3-6.06-0.99-15.33 3.34-44.28-6.61-62.58-0.92-0.09-2.11 1.16-2.42 1.31-12.13 6.06-2.03 12.47-17.25 3.07z"/> <path class="fil3" d="m13412 6381.4 66.81 0.95-13.25-260.11-121.28 5.42c4.93 30.75 25.61 87.22 34.52 124.96 9.64 40.72 20.64 94.78 33.19 128.78z"/> <path class="fil6" d="m11269 9382c45.47 32.25 303.16 52.19 354.86 12.13-0.96-28.76-31.08-53.84-53.11-64.96-42.95-21.71-273.16 33.42-301.75 52.83z"/> <path class="fil10" d="m11379 6541.8c-8.71-27.36 11.21-3.67-36.61-25.43-1.07-0.5-3.63-0.42-4.39-2.46-0.78-2.06-3.03-1.57-4.33-2.66-21.15 3.35-135.34-31.52-200.42 32.46 21.07 29.71 70.27 77.43 121.11 59.38 45.15-16.03 87.44-48.49 124.65-61.3z"/> <path class="fil1" d="m14037 7413.4c-18.07 45.9-17.79 103.55-18.2 154.74 15.88 4.73 45.87 5.86 61.73-2.4l27.47-273.22c-10.37 17.68-22.55 41.59-34.27 62.15-12.47 21.87-24.6 35.21-36.73 58.73z"/> <path class="fil2" d="m9739.1 8128.7c36.84-0.28 76.98 6.92 115.74 7.97l381.58 6.63c-98.76-29.17-336.29 3.99-549.39-88.87-15.39 3.54-15.81-8.64-8.99 17.33 1.88 7.15 10.46 18.25 14.98 23.04 12.98 13.71 31.92 21.92 46.09 33.9z"/> <path class="fil4" d="m11200 2220-112.56-342.35c-4.53-8.41-3.79-6.71-7.83-11.5-0.96 1.48-1.89 2.17-2.13 4.83-3.49 39.55-5.07 40.1 12.39 96.21l51.27 191.32c10.46 54.72-2.16 65.89 58.87 61.5z"/> <path class="fil3" d="m12884 3133.7c8.75 71.53 29.07 152.35 39.14 228.78 8.45 64.08 32.09 186.78 28.18 244.61 16.34-14.81 3.17 2.76 10.63-16.75l0.31-127.4c0.83-153.65-10.77-125.91-45.56-246.61-1.61-5.62-30.18-110-32.7-82.62z"/> <path class="fil2" d="m13868 7577.6c45.54-12.7 97.25 3.1 151.23-9.48 0.41-51.2 0.13-108.85 18.2-154.74-32.18 34.37-49.04 53.01-82.01 83.29-15.38 14.11-27.28 29.33-43.24 41.95-19.01 15.03-28.31 24.81-44.17 38.98z"/> <path class="fil11" d="m11034 2245.4c7.45 25.27-2.41 17.65 50.05 44.01 19.49 9.79 48 18.86 64.78 24.41l5.41 45.57c1.13 2.05 2.69 4.13 4.5 5.77 5.85-125.26 55.74-69.44 64.42-149.67-34.21 7.04-12.19 9.31-45.25 15.31l-143.92 14.6z"/> <path class="fil7" d="m7107.7 7617.6c-0.9 35.27-8.3 53.96-0.4 90.49 12.81 6.1 28.51 7.22 44.82 4.87 4.07-82.43 4.58-210.43-6.77-289.76-1.05 50.64 8.94 73.31-19.38 85.06l-4.45-8.77c-0.25-0.74-5.98-30.68-0.41-138.05l-13.41 256.15z"/> <path class="fil6" d="m11151 9521.5c46.65 34.71 139.55 44.03 187.97 6.07-33.72-18.35-154.29-37.11-187.97-6.07z"/> <path class="fil13" d="m10937 2379.5c6.28 25.78-0.73 16.28 25.59 25.48 41.89 14.64 128.65 10.93 171.57 7.27 72.23-6.15 139.49-20.54 176.84-64.86-99.11 31.02-145.81 61.95-285.87 53.42-43.19-2.63-57.03-15.86-88.12-21.31z"/> <path class="fil9" d="m10908 4500c8.38 47.72 91.09 52.4 80.35-17.12-8.16-52.81-90.99-43.42-80.35 17.12z"/> <path class="fil9" d="m10902 5173.1c10.73 52.95 89.14 35.7 78.19-21.75-10.05-52.77-91.76-45.18-78.19 21.75z"/> <path class="fil9" d="m10920 3826.8c7.79 50.39 95.13 41.06 75.06-29.03-13.94-48.75-84.25-30.45-75.06 29.03z"/> <path class="fil11" d="m11334 6511.3c1.3 1.09 3.56 0.6 4.33 2.66 0.77 2.04 3.33 1.96 4.39 2.46 47.82 21.76 27.91-1.93 36.61 25.43 25.75-16.22 47.44-24.12 70.41-35.02 11.56-5.49 22.3-11.28 32.55-16.46 10.68-5.41 22.68-9.46 31.46-14.23l-50.04-11.7c-9.02 12.27-0.03 6.63-15.07 12.51-14.23 5.57-44.29-0.42-62.43 3.75-44.02 10.09-2.16 27.32-52.22 30.62z"/> <path class="fil1" d="m7122 7328-0.95 33.48c-5.57 107.37 0.16 137.31 0.41 138.05l4.45 8.77c28.33-11.75 18.34-34.42 19.38-85.06l-6.82-154.57c-4.84 5.67-4.31 2.89-7.82 13.12l-8.66 46.23z"/> <path class="fil7" d="m6892.6 7532.6c12.54 69.04 40.84 235.18 35.93 294.01l1.76-375.69c-7.1 19.56-3.1 35.38-7.16 53.97-6.23 28.54 3.9 8.2-10.88 20.02-11.74 9.4-3.27 3.55-19.65 7.69z"/> <path class="fil6" d="m10735 2000.4c15.02 5.34 17.85 12.17 42.68 17.34 22.59 4.7 42.83 5.23 65.74 2.48 52.37-6.29 59.47-19.17 91.74-37.08-9.31-13.24 15.5-11.16-18.7-6.76-19.57 2.52-56.13 20.63-134.05 18.86-63.23-1.44-39.83-10.46-47.41 5.16z"/> <path class="fil4" d="m11353 3311.1c15.41-31.5 72.49-151.02 74.22-183.23-56.86-2.31-29.1 7.91-67.47 134.17-1.86 6.15-8.11 24.96-8.8 28.9l2.04 20.16z"/> <path class="fil11" d="m11081 2486.5c24.03 29.01 116.21 21.13 127.42-24.98-27.5-4.25-71.05 3.25-99.35 9.18-38.73 8.1-16.83 1.79-28.07 15.8z"/> <path class="fil6" d="m11190 1952.8c31.29 13.65 29.79 21.54 83.99 21.88 56.78 0.36 53.26-6.93 83.77-30.28-9.78-10.99 12.6-10.8-18.17-5.06-24.81 4.63-4.36 7.98-65.59 8.79l-70.29-2.85c-16.39 1.12-6.74-8-13.71 7.52z"/> </svg>