<?xml version="1.0" standalone="no"?><!DOCTYPE svg PUBLIC "-//W3C//DTD SVG 1.1//EN" "http://www.w3.org/Graphics/SVG/1.1/DTD/svg11.dtd"><svg t="1693027700643" class="icon" viewBox="0 0 1024 1024" version="1.1" xmlns="http://www.w3.org/2000/svg" p-id="8876" width="128" height="128" xmlns:xlink="http://www.w3.org/1999/xlink"><path d="M936.96 385.877333l-203.434667-204.8-18.090667-7.68L308.565333 173.397333l-18.090667 7.68L87.04 385.877333c-9.728 9.898667-9.898667 25.941333-0.170667 35.84l406.869333 421.034667c4.778667 4.949333 11.434667 7.850667 18.432 7.850667 6.997333 0 13.653333-2.901333 18.432-7.850667l406.869333-421.034667C946.858667 411.648 946.688 395.776 936.96 385.877333zM868.522667 389.632l-141.994667 0-163.84-165.034667 141.994667 0L868.522667 389.632zM319.317333 224.768l143.018667 0-163.84 165.034667L155.477333 389.802667 319.317333 224.768zM176.469333 440.832l132.608 0 18.090667-7.509333 185.173333-186.538667 185.173333 186.538667 18.090667 7.509333 131.584 0L512 787.968 176.469333 440.832z" p-id="8877" fill="#000000"></path></svg>