<?xml version="1.0" standalone="no"?><!DOCTYPE svg PUBLIC "-//W3C//DTD SVG 1.1//EN" "http://www.w3.org/Graphics/SVG/1.1/DTD/svg11.dtd"><svg t="1693028440322" class="icon" viewBox="0 0 1024 1024" version="1.1" xmlns="http://www.w3.org/2000/svg" p-id="25843" width="128" height="128" xmlns:xlink="http://www.w3.org/1999/xlink"><path d="M512 750.509317c-19.080745 0-31.801242-12.720497-31.801242-31.801242L480.198758 432.496894c0-19.080745 12.720497-31.801242 31.801242-31.801242s31.801242 12.720497 31.801242 31.801242l0 286.21118C537.440994 737.78882 524.720497 750.509317 512 750.509317z" fill="#000000" p-id="25844"></path><path d="M651.925466 534.26087 365.714286 534.26087c-19.080745 0-31.801242-12.720497-31.801242-31.801242 0-19.080745 12.720497-31.801242 31.801242-31.801242l286.21118 0c19.080745 0 31.801242 12.720497 31.801242 31.801242C683.726708 521.540373 671.006211 534.26087 651.925466 534.26087z" fill="#000000" p-id="25845"></path><path d="M651.925466 648.745342 365.714286 648.745342c-19.080745 0-31.801242-12.720497-31.801242-31.801242 0-19.080745 12.720497-31.801242 31.801242-31.801242l286.21118 0c19.080745 0 31.801242 12.720497 31.801242 31.801242C683.726708 636.024845 671.006211 648.745342 651.925466 648.745342z" fill="#000000" p-id="25846"></path><path d="M512 464.298137c-6.360248 0-19.080745 0-25.440994-6.360248L352.993789 324.372671c-12.720497-12.720497-12.720497-31.801242 0-44.521739 12.720497-12.720497 31.801242-12.720497 44.521739 0l133.565217 133.565217c12.720497 12.720497 12.720497 31.801242 0 44.521739C524.720497 464.298137 518.360248 464.298137 512 464.298137z" fill="#000000" p-id="25847"></path><path d="M512 464.298137c-6.360248 0-19.080745 0-25.440994-6.360248-12.720497-12.720497-12.720497-31.801242 0-44.521739l133.565217-133.565217c12.720497-12.720497 31.801242-12.720497 44.521739 0 12.720497 12.720497 12.720497 31.801242 0 44.521739L531.080745 457.937888C524.720497 464.298137 518.360248 464.298137 512 464.298137z" fill="#000000" p-id="25848"></path><path d="M512 1017.639752c-279.850932 0-508.819876-228.968944-508.819876-508.819876s228.968944-508.819876 508.819876-508.819876 508.819876 228.968944 508.819876 508.819876c0 25.440994 0 50.881988-6.360248 82.68323 0 19.080745-19.080745 31.801242-38.161491 25.440994-19.080745 0-31.801242-19.080745-25.440994-38.161491 6.360248-25.440994 6.360248-44.521739 6.360248-69.962733 0-248.049689-197.167702-445.217391-445.217391-445.217391S66.782609 267.130435 66.782609 515.180124s197.167702 445.217391 445.217391 445.217391c25.440994 0 57.242236 0 82.68323-6.360248 19.080745-6.360248 31.801242 6.360248 38.161491 25.440994 6.360248 19.080745-6.360248 31.801242-25.440994 38.161491C575.602484 1017.639752 543.801242 1017.639752 512 1017.639752z" fill="#000000" p-id="25849"></path><path d="M989.018634 864.993789l-318.012422 0c-19.080745 0-31.801242-12.720497-31.801242-31.801242s12.720497-31.801242 31.801242-31.801242l318.012422 0c19.080745 0 31.801242 12.720497 31.801242 31.801242S1001.73913 864.993789 989.018634 864.993789z" fill="#000000" p-id="25850"></path><path d="M830.012422 1024c-19.080745 0-31.801242-12.720497-31.801242-31.801242l0-318.012422c0-19.080745 12.720497-31.801242 31.801242-31.801242s31.801242 12.720497 31.801242 31.801242l0 318.012422C861.813665 1004.919255 842.732919 1024 830.012422 1024z" fill="#000000" p-id="25851"></path></svg>