<?xml version="1.0" standalone="no"?><!DOCTYPE svg PUBLIC "-//W3C//DTD SVG 1.1//EN" "http://www.w3.org/Graphics/SVG/1.1/DTD/svg11.dtd"><svg t="1693028553383" class="icon" viewBox="0 0 1024 1024" version="1.1" xmlns="http://www.w3.org/2000/svg" p-id="28918" width="128" height="128" xmlns:xlink="http://www.w3.org/1999/xlink"><path d="M510.72 962.56C262.4 960 61.44 757.76 64 509.44 66.56 263.68 264.96 65.28 510.72 62.72c17.92 0 34.56 14.08 34.56 32s-14.08 34.56-32 34.56h-2.56C299.52 130.56 128 300.8 128 512s171.52 382.72 382.72 382.72S893.44 723.2 893.44 512c0-17.92 16.64-33.28 34.56-32 17.92 0 32 15.36 32 32 0 248.32-200.96 450.56-449.28 450.56z" fill="#000000" p-id="28919"></path><path d="M645.12 480H375.04c-17.92 0-34.56-14.08-34.56-32s14.08-34.56 32-34.56h272.64c17.92 0 33.28 16.64 32 34.56 0 17.92-14.08 32-32 32z m0 130.56H375.04c-17.92 0-33.28-16.64-32-34.56 0-17.92 15.36-32 32-32h270.08c17.92 0 33.28 16.64 32 34.56 0 16.64-14.08 32-32 32z" fill="#000000" p-id="28920"></path><path d="M510.72 746.24c-17.92 0-33.28-15.36-33.28-33.28V441.6c0-17.92 16.64-33.28 34.56-32 17.92 0 32 15.36 32 32v270.08c0 19.2-15.36 34.56-33.28 34.56z" fill="#000000" p-id="28921"></path><path d="M510.72 458.24c-8.96 0-17.92-3.84-24.32-10.24l-111.36-111.36c-14.08-12.8-15.36-33.28-2.56-47.36s33.28-15.36 47.36-2.56l2.56 2.56 111.36 111.36c12.8 12.8 12.8 34.56 0 47.36-6.4 6.4-15.36 10.24-23.04 10.24z" fill="#000000" p-id="28922"></path><path d="M510.72 458.24c-8.96 0-17.92-3.84-24.32-10.24-12.8-12.8-12.8-34.56 0-47.36l111.36-111.36c14.08-12.8 35.84-10.24 47.36 2.56 11.52 12.8 11.52 32 0 44.8L533.76 448c-6.4 6.4-15.36 10.24-23.04 10.24zM925.44 241.92c17.92 0 33.28-15.36 33.28-33.28 0-8.96-3.84-17.92-10.24-24.32l-111.36-111.36c-12.8-14.08-33.28-14.08-47.36-1.28s-14.08 33.28-1.28 47.36l1.28 1.28 111.36 111.36c7.68 6.4 15.36 10.24 24.32 10.24z" fill="#000000" p-id="28923"></path><path d="M815.36 353.28c8.96 0 17.92-3.84 24.32-10.24l111.36-111.36c12.8-14.08 10.24-35.84-2.56-47.36-12.8-11.52-32-11.52-44.8 0l-111.36 111.36c-12.8 12.8-12.8 34.56 0 47.36 5.12 6.4 14.08 10.24 23.04 10.24z" fill="#000000" p-id="28924"></path><path d="M920.32 241.92c17.92 0 34.56-14.08 34.56-32s-14.08-34.56-32-34.56H695.04c-17.92 0-33.28 16.64-32 34.56 0 17.92 15.36 32 32 32h225.28z" fill="#000000" p-id="28925"></path></svg>