<?xml version="1.0" standalone="no"?><!DOCTYPE svg PUBLIC "-//W3C//DTD SVG 1.1//EN" "http://www.w3.org/Graphics/SVG/1.1/DTD/svg11.dtd"><svg t="1693028338187" class="icon" viewBox="0 0 1024 1024" version="1.1" xmlns="http://www.w3.org/2000/svg" p-id="22985" width="128" height="128" xmlns:xlink="http://www.w3.org/1999/xlink"><path d="M983.8 312.7C958 251.7 921 197 874 150c-47-47-101.8-83.9-162.7-109.7C648.2 13.5 581.1 0 512 0S375.8 13.5 312.7 40.2C251.7 66 197 102.9 150 150c-47 47-83.9 101.8-109.7 162.7C13.5 375.8 0 442.9 0 512s13.5 136.2 40.2 199.3C66 772.3 102.9 827 150 874c47 47 101.8 83.9 162.7 109.7 63.1 26.7 130.2 40.2 199.3 40.2s136.2-13.5 199.3-40.2C772.3 958 827 921 874 874c47-47 83.9-101.8 109.7-162.7 26.7-63.1 40.2-130.2 40.2-199.3s-13.4-136.2-40.1-199.3z m-55.3 375.2c-22.8 53.8-55.4 102.2-96.9 143.7s-89.9 74.1-143.7 96.9C632.2 952.1 573 964 512 964s-120.2-11.9-175.9-35.5c-53.8-22.8-102.2-55.4-143.7-96.9s-74.1-89.9-96.9-143.7C71.9 632.2 60 573 60 512s11.9-120.2 35.5-175.9c22.8-53.8 55.4-102.2 96.9-143.7s89.9-74.1 143.7-96.9C391.8 71.9 451 60 512 60s120.2 11.9 175.9 35.5c53.8 22.8 102.2 55.4 143.7 96.9s74.1 89.9 96.9 143.7C952.1 391.8 964 451 964 512s-11.9 120.2-35.5 175.9z" fill="#000000" p-id="22986"></path><path d="M706 469.1H574.7l84.2-180.6c7-15 0.4-32.9-14.5-39.9-15-7-32.9-0.4-39.9 14.5L512 461.5l-92.5-198.3c-7-15-24.9-21.5-39.9-14.5s-21.5 24.9-14.5 39.9l84.2 180.6H318c-16.5 0-30 13.5-30 30s13.5 30 30 30h164v64h-92.5c-20.6 0-37.5 13.5-37.5 30s16.9 30 37.5 30H482v95c0 16.5 13.5 30 30 30s30-13.5 30-30v-95h92.5c20.6 0 37.5-13.5 37.5-30s-16.9-30-37.5-30H542v-64h164c16.5 0 30-13.5 30-30 0-16.6-13.5-30.1-30-30.1z" fill="#000000" p-id="22987"></path></svg>