<svg t="1693027780777" class="icon" viewBox="0 0 1024 1024" version="1.1" xmlns="http://www.w3.org/2000/svg" p-id="10083" width="128" height="128"><path d="M509.091764 501.653351c241.775532 0 424.086741-78.085426 424.086741-181.63992 0-103.543238-182.311209-181.628664-424.086741-181.628664S84.993766 216.471217 84.993766 320.014454C84.993766 423.568948 267.316232 501.653351 509.091764 501.653351zM509.091764 184.220698c222.908836 0 378.251833 71.561849 378.251833 135.793756S732.001623 455.818443 509.091764 455.818443c-222.920092 0-378.26309-71.573105-378.26309-135.803989S286.171672 184.220698 509.091764 184.220698z" fill="#000000" p-id="10084"></path><path d="M509.083577 694.061522c241.1155 0 422.937568-77.598332 422.937568-180.482561 0-27.169803-13.127995-52.453652-36.241412-75.131141-0.148379-0.153496-0.26606-0.320295-0.418532-0.468674-0.170892-0.166799-0.285502-0.345877-0.456395-0.51063l-0.11461 0.125867c-3.717671-3.40761-8.576329-5.608741-14.017248-5.608741-11.542894 0-20.898982 9.356089-20.898982 20.898982 0 6.110161 2.721994 11.481496 6.901177 15.302521l-0.082888 0.091074c13.948687 14.024411 21.809725 31.154557 21.809725 45.300742 0 64.785515-155.813718 136.966465-379.419426 136.966465-223.595474 0-379.410216-72.180949-379.410216-136.966465 0-16.139585 4.53734-29.952172 22.323425-45.670156 0.213871-0.204661 0.429789-0.381693 0.635473-0.594541 0.137123-0.118704 0.240477-0.233314 0.378623-0.354064l-0.084934-0.080841c3.416819-3.719718 5.623068-8.588609 5.623068-14.037714 0-11.542894-9.356089-20.898982-20.898982-20.898982-5.770424 0-10.993378 2.340301-14.773472 6.119371l-0.122797-0.118704c-23.408129 22.797215-36.594453 48.27754-36.594453 75.635631C86.158289 616.462167 267.979334 694.061522 509.083577 694.061522z" fill="#000000" p-id="10085"></path><path d="M895.577119 629.529787c-0.168846-0.164752-0.282433-0.342808-0.453325-0.50756l-0.11461 0.124843c-3.717671-3.40761-8.577353-5.608741-14.018272-5.608741-11.540847 0-20.897959 9.356089-20.897959 20.898982 0 6.110161 2.720971 11.482519 6.901177 15.302521l-0.083911 0.091074c13.94971 14.024411 21.810748 31.154557 21.810748 45.300742 0 64.787562-155.813718 136.966465-379.419426 136.966465-223.595474 0-379.410216-72.179926-379.410216-136.966465 0-16.139585 4.53734-29.952172 22.321378-45.670156 0.213871-0.202615 0.429789-0.381693 0.635473-0.594541 0.137123-0.118704 0.240477-0.233314 0.378623-0.354064l-0.084934-0.080841c3.416819-3.719718 5.623068-8.588609 5.623068-14.037714 0-11.542894-9.356089-20.898982-20.897959-20.898982-5.770424 0-10.993378 2.340301-14.773472 6.119371l-0.122797-0.118704c-23.410176 22.797215-36.594453 48.278563-36.594453 75.635631 0 102.884228 181.821045 180.482561 422.926312 180.482561 241.114476 0 422.935522-77.598332 422.935522-180.482561 0-27.166733-13.125949-52.452629-36.235272-75.127048C895.851365 629.847012 895.730615 629.681236 895.577119 629.529787z" fill="#000000" p-id="10086"></path></svg>