<?xml version="1.0" standalone="no"?><!DOCTYPE svg PUBLIC "-//W3C//DTD SVG 1.1//EN" "http://www.w3.org/Graphics/SVG/1.1/DTD/svg11.dtd"><svg t="1724297262365" class="icon" viewBox="0 0 1024 1024" version="1.1" xmlns="http://www.w3.org/2000/svg" p-id="1396" xmlns:xlink="http://www.w3.org/1999/xlink" width="200" height="200"><path d="M707.91 103c16.28 0 29.522 13.007 29.897 29.195l0.009 0.706v111.878a29.96 29.96 0 0 1-0.898 7.3l171.177-0.001c16.28 0 29.522 13.007 29.897 29.195l0.008 0.706v637.12c0 16.278-13.01 29.518-29.2 29.893l-0.705 0.008H270.884c-16.28 0-29.522-13.007-29.897-29.195l-0.008-0.706V787.274c0-16.514 13.389-29.9 29.905-29.9 16.28 0 29.522 13.007 29.897 29.194l0.008 0.706v101.924h577.4V311.88h-577.4v88.787c0 16.278-13.009 29.518-29.2 29.893l-0.705 0.008c-16.28 0-29.522-13.008-29.897-29.195l-0.008-0.706V281.979c0-16.278 13.009-29.518 29.2-29.893l0.705-0.008h408.019a29.916 29.916 0 0 1-0.89-6.593l-0.008-0.706v-81.978H132.808v407.113h385.787L408.223 456.982c-11.36-11.624-11.329-30.143-0.066-41.729l0.554-0.555c11.625-11.358 30.147-11.327 41.734-0.066l0.555 0.554 161.028 164.762c11.244 11.504 11.344 29.793 0.362 41.42l-0.55 0.565-161.027 161.849c-11.648 11.707-30.583 11.757-42.292 0.11-11.524-11.461-11.754-29.979-0.657-41.723l0.546-0.563 111.319-111.89H102.905c-16.28 0-29.522-13.007-29.897-29.195l-0.008-0.705V132.9c0-16.278 13.01-29.518 29.2-29.893l0.705-0.008H707.91z" p-id="1397"></path></svg>