<?xml version="1.0" standalone="no"?><!DOCTYPE svg PUBLIC "-//W3C//DTD SVG 1.1//EN" "http://www.w3.org/Graphics/SVG/1.1/DTD/svg11.dtd"><svg t="1715352878351" class="icon" viewBox="0 0 1024 1024" version="1.1" xmlns="http://www.w3.org/2000/svg" p-id="1499" xmlns:xlink="http://www.w3.org/1999/xlink" width="200" height="200"><path d="M624.5 786.3c92.9 0 168.2-75.3 168.2-168.2V309c0-92.4-75.3-168.2-168.2-168.2H303.6c-92.4 0-168.2 75.3-168.2 168.2v309.1c0 92.4 75.3 168.2 168.2 168.2h320.9zM178.2 618.1V309c0-69.4 56.1-125.5 125.5-125.5h320.9c69.4 0 125.5 56.1 125.5 125.5v309.1c0 69.4-56.1 125.5-125.5 125.5h-321c-69.4 0-125.4-56.1-125.4-125.5z" p-id="1500" fill="#8a8a8a"></path><path d="M849.8 295.1v361.5c0 102.7-83.6 186.3-186.3 186.3H279.1v42.7h384.4c126.3 0 229.1-102.8 229.1-229.1V295.1h-42.8zM307.9 361.8h312.3c11.8 0 21.4-9.6 21.4-21.4 0-11.8-9.6-21.4-21.4-21.4H307.9c-11.8 0-21.4 9.6-21.4 21.4 0 11.9 9.6 21.4 21.4 21.4zM307.9 484.6h312.3c11.8 0 21.4-9.6 21.4-21.4 0-11.8-9.6-21.4-21.4-21.4H307.9c-11.8 0-21.4 9.6-21.4 21.4 0 11.9 9.6 21.4 21.4 21.4z" p-id="1501" fill="#8a8a8a"></path><path d="M620.2 607.4c11.8 0 21.4-9.6 21.4-21.4 0-11.8-9.6-21.4-21.4-21.4H307.9c-11.8 0-21.4 9.6-21.4 21.4 0 11.8 9.6 21.4 21.4 21.4h312.3z" p-id="1502" fill="#8a8a8a"></path></svg>