<?xml version="1.0" standalone="no"?><!DOCTYPE svg PUBLIC "-//W3C//DTD SVG 1.1//EN" "http://www.w3.org/Graphics/SVG/1.1/DTD/svg11.dtd"><svg t="1715354120346" class="icon" viewBox="0 0 1024 1024" version="1.1" xmlns="http://www.w3.org/2000/svg" p-id="3256" xmlns:xlink="http://www.w3.org/1999/xlink" width="200" height="200"><path d="M907.1 263.7H118.9c-9.1 0-16.4-7.3-16.4-16.4s7.3-16.4 16.4-16.4H907c9.1 0 16.4 7.3 16.4 16.4s-7.3 16.4-16.3 16.4z" fill="#8a8a8a" p-id="3257"></path><path d="M772.5 928.3H257.4c-27.7 0-50.2-22.5-50.2-50.2V247.2c0-9.1 7.3-16.4 16.4-16.4H801c12.1 0 21.9 9.8 21.9 21.9v625.2c0 27.8-22.6 50.4-50.4 50.4zM240 263.7v614.4c0 9.6 7.8 17.4 17.4 17.4h515.2c9.7 0 17.5-7.9 17.5-17.5V263.7H240zM657.4 131.1H368.6c-9.1 0-16.4-7.3-16.4-16.4s7.3-16.4 16.4-16.4h288.7c9.1 0 16.4 7.3 16.4 16.4s-7.3 16.4-16.3 16.4z" fill="#8a8a8a" p-id="3258"></path><path d="M416 754.5c-9.1 0-16.4-7.3-16.4-16.4V517.8c0-9.1 7.3-16.4 16.4-16.4s16.4 7.3 16.4 16.4V738c0.1 9.1-7.3 16.5-16.4 16.5z" fill="#8a8a8a" p-id="3259"></path><path d="M416 465.2c-9.1 0-16.4-7.3-16.4-16.4v-59.4c0-9.1 7.3-16.4 16.4-16.4s16.4 7.3 16.4 16.4v59.4c0.1 9.1-7.3 16.4-16.4 16.4zM604.9 754.5c-9.1 0-16.4-7.3-16.4-16.4v-67.2c0-9.1 7.3-16.4 16.4-16.4s16.4 7.3 16.4 16.4V738c0 9.1-7.3 16.5-16.4 16.5z" fill="#8a8a8a" opacity=".4" p-id="3260"></path><path d="M604.9 619.1c-9.1 0-16.4-7.3-16.4-16.4V389.4c0-9.1 7.3-16.4 16.4-16.4s16.4 7.3 16.4 16.4v213.3c0 9.1-7.3 16.4-16.4 16.4z" fill="#8a8a8a" p-id="3261"></path></svg>