<svg xmlns="http://www.w3.org/2000/svg" width="14" height="14" fill="none" class="design-iconfont" viewBox="0 0 12 12"><path fill="url(#a)" fill-rule="evenodd" d="M1 0a1 1 0 0 0-1 1v3.538a1 1 0 0 0 1 1h3.538a1 1 0 0 0 1-1V1a1 1 0 0 0-1-1H1Zm0 6.462a1 1 0 0 0-1 1V11a1 1 0 0 0 1 1h3.538a1 1 0 0 0 1-1V7.462a1 1 0 0 0-1-1H1ZM6.462 1a1 1 0 0 1 1-1H11a1 1 0 0 1 1 1v3.538a1 1 0 0 1-1 1H7.462a1 1 0 0 1-1-1V1Zm1 5.462a1 1 0 0 0-1 1V11a1 1 0 0 0 1 1H11a1 1 0 0 0 1-1V7.462a1 1 0 0 0-1-1H7.462Z" clip-rule="evenodd"/><defs><linearGradient id="a" x1="0" x2="12" y1="0" y2="12" gradientUnits="userSpaceOnUse"><stop stop-color="#1B3149"/><stop offset="1" stop-color="#717D8A"/></linearGradient></defs></svg>