<svg xmlns="http://www.w3.org/2000/svg" width="14" height="14" fill="none" viewBox="0 0 12 12"><g clip-path="url(#a)"><path fill="url(#b)" fill-rule="evenodd" d="M6.958.42C6.444.216 5.61.216 5.098.42L1.15 1.975c-.77.304-.77.797 0 1.1l3.947 1.558c.514.202 1.347.202 1.86 0l3.948-1.557c.77-.304.77-.797 0-1.1L6.958.418ZM4.715 11.788a.857.857 0 0 0 .3.056c.383 0 .671-.295.671-.7V6.404c0-.49-.364-1.007-.817-1.177L1.09 3.805a.808.808 0 0 0-.284-.056c-.353 0-.581.275-.581.7V9.19c0 .508.33 1.014.763 1.177l3.726 1.422Zm2.229-.024h-.02l.073.003c.074.004.154.009.227-.019L11 10.367c.45-.168.83-.686.83-1.177V4.45c0-.413-.29-.7-.673-.7a.965.965 0 0 0-.317.055l-3.72 1.422c-.44.165-.75.67-.75 1.177v4.74c0 .42.218.621.575.621Z" clip-rule="evenodd"/></g><defs><linearGradient id="b" x1=".226" x2="11.803" y1=".267" y2="11.871" gradientUnits="userSpaceOnUse"><stop stop-color="#1B3149"/><stop offset="1" stop-color="#717D8A"/></linearGradient><clipPath id="a"><path fill="#fff" d="M0 0h12v12H0z"/></clipPath></defs></svg>