<svg t="1731390087280" class="icon" viewBox="0 0 1024 1024" version="1.1" xmlns="http://www.w3.org/2000/svg" p-id="4297" width="200" height="200"><path d="M639.9 541.7c76.4-44.2 127.9-126.8 127.9-221.5C767.7 179 653.2 64.5 512 64.5S256.3 179 256.3 320.2c0 89.6 46.1 168.4 115.8 214.1C193.5 593 64.5 761.2 64.5 959.5h63.9c0-211.5 172.1-383.6 383.6-383.6 44.9 0 87.8 8.1 127.9 22.4v-56.6zM320.2 320.2c0-105.8 86-191.8 191.8-191.8s191.8 86 191.8 191.8S617.7 512 512 512s-191.8-86-191.8-191.8zM831.6 767.7V639.9h-63.9v127.8H639.9v63.9h127.8v127.9h63.9V831.6h127.9v-63.9z" fill="#5f6266" p-id="4298"></path></svg>