<svg t="1740116978908" class="icon" viewBox="0 0 1024 1024" version="1.1" xmlns="http://www.w3.org/2000/svg" p-id="1356" width="200" height="200"><path d="M860.544 633.856c-82.368 0-152.128 69.632-158.464 152h-354.88c-31.616 0-63.296-31.68-63.296-63.296V437.376c12.608 0 25.344 6.4 44.288 6.4h380.16c12.672 69.696 76.032 126.656 152.128 126.656 88.704 0 158.336-69.696 158.336-158.4s-69.632-158.4-158.336-158.4c-76.096 0-139.456 57.024-152.128 126.656h-361.216c-31.616 0-63.296-31.68-63.296-63.296v-133.12h164.736c31.68 0 63.296-22.848 63.296-54.528a55.04 55.04 0 0 0-56-56h-380.16c-31.68 0-70.72 17.984-70.72 56s31.68 54.528 63.36 54.528h133.056v538.624c0 69.696 57.088 126.656 126.72 126.656h386.56c25.344 57.088 82.368 101.376 145.728 101.376a156.8 156.8 0 0 0 158.336-158.4 156.608 156.608 0 0 0-158.208-158.272z m0-316.8c50.624 0 94.912 44.288 94.912 94.976s-44.288 94.976-94.912 94.976c-50.752 0-95.104-44.288-95.104-94.976s44.352-94.976 95.104-94.976z m0 570.24c-50.752 0-95.104-44.352-95.104-95.04s44.352-95.04 95.104-95.04c50.624 0 94.912 44.352 94.912 95.04s-44.288 95.04-94.912 95.04z" p-id="1357" fill="#ffffff"></path></svg>