<svg t="1729561718271" class="icon" viewBox="0 0 1024 1024" version="1.1" xmlns="http://www.w3.org/2000/svg" p-id="8640" width="200" height="200"><path d="M908.5952 920.4224H164.7616a31.0784 31.0784 0 0 1-30.976-30.976c0-17.0496 13.9264-30.976 30.976-30.976h743.8336c17.0496 0 31.0272 13.9264 31.0272 30.976a31.0784 31.0784 0 0 1-31.0272 30.976z m0-123.9552H164.7616a31.0784 31.0784 0 0 1-30.976-30.976v-154.9824c0-51.1488 41.8304-92.9792 92.9792-92.9792h198.3488c-6.1952-37.1712-24.7808-72.8064-51.1488-103.8336a216.576 216.576 0 0 1-54.2208-144.128c0-58.88 23.2448-114.688 66.6112-156.4672C429.7728 71.168 485.5296 51.0976 545.9968 52.6848c111.5648 4.608 206.08 100.6592 207.616 212.2752 1.536 55.808-20.1216 110.0288-57.344 151.8592-26.3168 27.904-41.8304 61.952-48.0256 100.7104h198.3488c51.2 0 93.0304 41.8304 93.0304 92.9792v154.9824a31.0784 31.0784 0 0 1-31.0272 30.976z m-712.8064-61.952H877.568v-124.0064a31.0784 31.0784 0 0 0-31.0272-30.976h-232.448a31.0784 31.0784 0 0 1-30.976-31.0272c0-65.024 23.2448-127.0784 66.6624-173.568 27.8528-29.3888 41.8304-68.1472 41.8304-108.4416-1.536-80.5888-68.1984-148.7872-148.7872-151.8592a150.528 150.528 0 0 0-113.152 43.3664 153.6 153.6 0 0 0-48.0256 111.616c0 37.1712 13.9776 74.3424 38.7584 102.2464 44.9536 51.1488 69.7344 113.152 69.7344 176.64a31.0784 31.0784 0 0 1-30.976 31.0272h-232.448a31.0784 31.0784 0 0 0-30.976 30.976v123.9552z" fill="#fff" p-id="8641"></path></svg>