<svg t="1729585232424" class="icon" viewBox="0 0 1024 1024" version="1.1" xmlns="http://www.w3.org/2000/svg" p-id="1602" width="200" height="200"><path d="M925.5 898.9H804.9c-19 0-34.5-15.4-34.5-34.4V761.3c0-19 15.4-34.4 34.5-34.4h34.5V572.2c0-19-15.4-34.4-34.5-34.4H529.2V727h34.5c19 0 34.5 15.4 34.5 34.4v103.2c0 19-15.4 34.4-34.5 34.4H443.1c-19 0-34.5-15.4-34.5-34.4V761.3c0-19 15.4-34.4 34.5-34.4h34.5V537.8H219.1c-19 0-34.5 15.4-34.5 34.4V727h34.5c19 0 34.5 15.4 34.5 34.4v103.2c0 19-15.4 34.4-34.5 34.4H98.5c-19 0-34.5-15.4-34.5-34.4V761.3c0-19 15.4-34.4 34.5-34.4H133V555c0-38 30.9-68.8 68.9-68.8h275.7V297.1h-34.5c-19 0-34.5-15.4-34.5-34.4V159.5c0-19 15.4-34.4 34.5-34.4h120.6c19 0 34.5 15.4 34.5 34.4v103.2c0 19-15.4 34.4-34.5 34.4h-34.5v189.2h292.9c38.1 0 68.9 30.8 68.9 68.8v172h34.5c19 0 34.5 15.4 34.5 34.4v103.2c0 18.8-15.4 34.2-34.5 34.2z m0 0" p-id="1603" fill="#fff"></path></svg>