<svg t="1729649333541" class="icon" viewBox="0 0 1024 1024" version="1.1" xmlns="http://www.w3.org/2000/svg" p-id="1644" width="200" height="200"><path d="M647.888 893.84L491.904 571.52l393.888-393.888-237.904 716.208zM872.32 123.232L459.872 535.68 134.96 380.88 872.32 123.232z m90.72-68.32a23.968 23.968 0 0 0-24.784-5.568L64.08 354.816a23.984 23.984 0 0 0-2.4 44.32l381.392 181.728 187.36 387.088a24.048 24.048 0 0 0 23.152 13.504 24.032 24.032 0 0 0 21.232-16.4L968.96 79.552c2.88-8.672 0.592-18.24-5.92-24.64z" fill="#fff" p-id="1645"></path></svg>