<?xml version="1.0" standalone="no"?><!DOCTYPE svg PUBLIC "-//W3C//DTD SVG 1.1//EN" "http://www.w3.org/Graphics/SVG/1.1/DTD/svg11.dtd"><svg t="1735905505218" class="icon" viewBox="0 0 1024 1024" version="1.1" xmlns="http://www.w3.org/2000/svg" p-id="4277" width="200" height="200" xmlns:xlink="http://www.w3.org/1999/xlink"><path d="M561.778 454.929h198.117c0.549 0 0.994 0.444 0.994 1.001v97.553a0.998 0.998 0 0 1-0.994 1.001H463.224a1.005 1.005 0 0 1-1.002-1V207.04c0-0.552 0.444-1 1.002-1h97.552c0.553 0 1.002 0.455 1.002 1v247.89zM512 952.706c-247.424 0-448-200.576-448-448 0-247.423 200.576-448 448-448s448 200.577 448 448c0 247.424-200.576 448-448 448z m0-99.555c192.44 0 348.444-156.004 348.444-348.445 0-192.44-156.003-348.444-348.444-348.444-192.44 0-348.444 156.004-348.444 348.444 0 192.441 156.003 348.445 348.444 348.445z" fill="#3296FA" p-id="4278"></path></svg>