<?xml version="1.0" standalone="no"?><!DOCTYPE svg PUBLIC "-//W3C//DTD SVG 1.1//EN" "http://www.w3.org/Graphics/SVG/1.1/DTD/svg11.dtd"><svg t="1729949323056" class="icon" viewBox="0 0 1024 1024" version="1.1" xmlns="http://www.w3.org/2000/svg" p-id="12570" xmlns:xlink="http://www.w3.org/1999/xlink" width="200" height="200"><path d="M0 0h1024v1024H0z" fill="#333333" opacity=".01" p-id="12571"></path><path d="M512 0a32 32 0 0 0-32 32v448a32 32 0 0 0 64 0v-448A32 32 0 0 0 512 0zM282.688 109.696a32 32 0 0 0-44.544-7.936 480 480 0 1 0 549.12 0.96 32 32 0 1 0-36.8 52.352 416 416 0 1 1-475.776-0.832 32 32 0 0 0 8-44.544z" fill="#e6e6e6" p-id="12572" data-spm-anchor-id="a313x.search_index.0.i5.3c163a81TFKD3L" class="selected"></path></svg>