<svg t="1730189225011" class="icon" viewBox="0 0 1024 1024" version="1.1" xmlns="http://www.w3.org/2000/svg" p-id="2651" id="mx_n_1730189225011" width="200" height="200"><path d="M793.889347 200.380242c27.648573 20.615681 42.196018 32.710677 63.781037 56.119312 25.313864 27.453234 43.242957 48.52047 64.502857 86.507991 44.537416 79.580127 53.527718 136.949077 53.517684 212.063821 0 64.933675-15.452562 130.459388-40.138263 187.311893-22.076044 50.841799-61.545336 104.359483-101.886297 138.933914-45.506755 39.001681-81.214423 60.462941-137.605337 81.826531-55.699867 21.102023-114.070267 28.641326-181.379458 27.791064-68.274516-0.862973-129.364283-11.040029-180.533878-31.80489-46.159002-18.731189-98.338744-46.827973-141.596418-87.541551-43.946046-41.361142-70.369064-75.958317-93.88139-127.198155-26.157437-57.004361-40.094111-129.065922-39.680686-191.781288 0-36.980719 4.033895-70.902234 12.252873-105.241856 8.532726-35.651474 20.069131-69.572989 38.13135-102.35257 18.856956-34.221214 36.754607-62.067803 58.869452-88.973149 23.248751-28.285434 39.2104-46.417894 64.295476-63.475987 18.297696-12.442861 36.879036-9.295353 47.199252-2.306612 4.403836 2.982273 8.919391 6.577992 12.933218 12.933217 9.572307 15.156208-0.334486 29.769212-6.69038 38.465836-7.148625 9.781026-23.130343 26.023643-38.738775 43.218205-38.192895 42.075603-55.133918 65.965228-74.986303 106.965794-30.772668 63.552249-37.495827 115.718611-38.131349 166.573791-0.668971 53.517684 9.995096 99.647251 27.427813 140.483919 33.916163 80.572211 94.807915 144.44289 175.270414 178.615938 41.108271 17.845472 113.812713 37.319888 181.960793 38.13135 56.193568 0.668971 125.919751-11.321666 166.574459-28.096784 45.935566-18.954626 97.223569-56.862539 127.10383-94.324918 23.013273-28.852721 52.179742-70.910931 64.413884-105.694749 14.863868-42.260239 24.806784-87.661297 24.559934-132.458943 0-54.414105-11.53373-108.417461-36.918505-156.856317-20.16747-38.483228-46.480777-74.607665-84.66899-108.048189-13.377414-11.714352-23.822728-20.067124-38.808348-31.619586-10.191774-7.857065-36.059546-25.027545-28.923632-47.326356 4.970455-15.53217 18.303717-25.294464 31.887843-27.205046 19.456354-2.736092 28.565733 2.427027 43.705885 12.041479l6.179955 4.322891zM510.755379 531.65738c-8.696624-0.668971-10.034566-0.446204-20.738102-6.689711-11.031333-6.434832-17.839451-21.183637-16.514219-35.175166V92.220334c0-18.178619 0.386665-22.815926 8.988295-31.685813 5.351768-5.519011 10.963097-11.381873 26.08987-11.539751 16.055305-0.167243 21.407073 3.846584 27.929542 9.700081 9.70677 8.711341 10.703537 17.56049 10.377078 33.525483v397.5715c-0.509756 15.273947 0.326458 22.967114-11.380535 33.502739-3.884046 3.495374-8.027653 7.693167-20.96087 8.362138l-3.791059 0.000669z m4.453341 0.573308" p-id="2652" fill="#ffffff"></path></svg>