<svg t="1729585239190" class="icon" viewBox="0 0 1024 1024" version="1.1" xmlns="http://www.w3.org/2000/svg" p-id="1755" width="200" height="200"><path d="M901.489435 536.822664v-0.931601l-1.001722-198.240726c-0.100172-19.162936-9.21584-37.474409-25.043042-50.246361-14.024104-11.349507-32.265456-17.60025-51.348255-17.610268l-618.062295-0.18031c-19.142902 0-37.424323 6.280795-51.478478 17.690405-15.827203 12.842072-24.902802 31.2437-24.892785 50.486775v196.798247A114.987635 114.987635 0 1 0 195.295664 536.922836V338.782282c1.15198-1.252152 4.808264-3.596181 10.768509-3.596181l276.725622 0.090155v199.753326a114.987635 114.987635 0 1 0 65.612772 1.412428V335.326342l275.693849 0.080138c6.01033 0 9.626546 2.344029 10.768508 3.596181l1.001722 195.70637a114.987635 114.987635 0 1 0 65.592737 2.113633zM214.979496 645.910158a56.437001 56.437001 0 1 1-56.437001-56.437001 56.507122 56.507122 0 0 1 56.437001 56.437001z m354.689623 0a56.437001 56.437001 0 1 1-56.437001-56.437001 56.507122 56.507122 0 0 1 56.437001 56.437001z m295.507904 56.437001a56.437001 56.437001 0 1 1 56.437001-56.437001 56.507122 56.507122 0 0 1-56.457035 56.437001z" p-id="1756" fill='#fff'></path></svg>