<svg t="1729561814171" class="icon" viewBox="0 0 1024 1024" version="1.1" xmlns="http://www.w3.org/2000/svg" p-id="1359" width="200" height="200"><path d="M674.496 603.456c120.256 0 218.176 90.752 221.44 203.84l0.064 5.888v125.888c0 11.52-9.92 20.928-22.144 20.928h-44.352a21.568 21.568 0 0 1-22.144-20.928v-125.888c0-67.712-56.512-123.264-128-125.76l-4.928-0.064H349.568c-71.488 0-130.176 53.504-132.864 121.152l-0.064 4.672v125.888c0 11.52-9.92 20.928-22.144 20.928h-44.352A21.568 21.568 0 0 1 128 939.072v-125.888c0-113.92 95.872-206.528 215.36-209.664l6.208-0.064h324.928zM497.216 128c122.368 0 221.568 93.888 221.568 209.728s-99.2 209.792-221.568 209.792c-122.304 0-221.44-93.952-221.44-209.728C275.712 221.952 374.848 128 497.152 128z m0 83.904c-73.408 0-132.864 56.32-132.864 125.888 0 69.504 59.52 125.824 132.864 125.824 73.408 0 132.928-56.32 132.928-125.824 0-69.504-59.52-125.888-132.928-125.888z" fill="#fff" p-id="1360"></path></svg>