<svg t="1739406626368" class="icon" viewBox="0 0 1024 1024" version="1.1" xmlns="http://www.w3.org/2000/svg" p-id="1300" width="200" height="200"><path d="M803.221 925.573H224.356c-68.568 0-124.352-55.784-124.352-124.353V222.356c0-68.568 55.784-124.352 124.352-124.352h355.311v64H224.356c-33.278 0-60.352 27.074-60.352 60.352V801.22c0 33.278 27.074 60.353 60.352 60.353H803.22c33.278 0 60.353-27.074 60.353-60.353V448.208h64V801.22c0 68.569-55.784 124.353-124.352 124.353z" fill="#ffffff" p-id="1301"></path><path d="M300.357 756.916l35.024-195.867L770.117 84.404c10.05-11.02 25.015-18.052 41.058-19.293 16.017-1.247 31.987 3.379 43.841 12.667l83.662 65.549c21.643 16.956 24.254 45.964 5.942 66.038l-437.613 479.8-206.65 67.751z m104.994-170.751l-13.14 73.487 69.671-22.842 415.465-455.517-59.909-46.939-412.087 451.811z" fill="#ffffff" p-id="1302"></path><path d="M732.25 220.897l41.144-49.023 81.151 68.11-41.145 49.023z" fill="#ffffff" p-id="1303"></path></svg>